<?xml version="1.0" encoding="utf-8"?>
<!-- Generator: Adobe Illustrator 23.0.3, SVG Export Plug-In . SVG Version: 6.00 Build 0)  -->
<svg version="1.1" id="Ebene_1" xmlns="http://www.w3.org/2000/svg" xmlns:xlink="http://www.w3.org/1999/xlink" x="0px" y="0px"
	 viewBox="0 0 142.6 69.6" style="enable-background:new 0 0 142.6 69.6;" xml:space="preserve">
<style type="text/css">
	.st0{fill:#2F7CB7;}
	.st1{fill:#4D4D4D;}
	.st2{fill:#FFFFFF;}
</style>
<g>
	<g>
		<path class="st0" d="M31,69.1C53.6,60,61.2,26.7,61.5,12.2C48.6,11.6,31,0.6,31,0.6s-17.6,11-30.5,11.6C0.8,26.7,8.4,60,31,69.1z"
			/>
		<path class="st1" d="M31,69.6l-0.2-0.1C18.2,64.5,10.9,52.2,6.9,42.9C2.1,31.3,0.2,19.1,0,12.2l0-0.5l0.5,0
			C13.1,11.1,30.6,0.3,30.7,0.2L31,0l0.3,0.2c0.2,0.1,17.6,10.9,30.3,11.6l0.5,0l0,0.5c-0.2,6.9-2.1,19.1-6.9,30.6
			c-4,9.4-11.3,21.6-23.9,26.7L31,69.6z M1,12.7c0.2,6.9,2.1,18.7,6.8,29.8c3.9,9.2,11,21.1,23.2,26.1c12.1-5,19.3-16.9,23.2-26.1
			c4.7-11.2,6.6-22.9,6.8-29.8c-3.8-0.3-10.2-1.6-19.8-6.1C36.1,4.2,32,1.8,31,1.2c-1,0.6-5.1,3-10.2,5.4C15.4,9.1,7.6,12.2,1,12.7z
			"/>
	</g>
	<g>
		<path class="st0" d="M69.4,46c0-1.8,0.4-3.1,1.3-4.1c0.8-1,2.1-1.4,3.8-1.4c1.7,0,3,0.5,3.8,1.4c0.8,1,1.3,2.3,1.3,4.1v0.7h-3.3
			v-0.9c0-0.8-0.2-1.4-0.5-1.7c-0.3-0.3-0.7-0.5-1.3-0.5c-0.5,0-1,0.2-1.3,0.5c-0.3,0.3-0.5,0.9-0.5,1.7c0,0.8,0.2,1.4,0.5,2
			c0.3,0.6,0.8,1.1,1.3,1.6c0.5,0.5,1,1,1.6,1.5c0.6,0.5,1.1,1.1,1.6,1.7c0.5,0.6,0.9,1.3,1.3,2.1c0.3,0.8,0.5,1.7,0.5,2.7
			c0,1.8-0.4,3.1-1.3,4.1c-0.9,1-2.2,1.4-3.8,1.4c-1.7,0-3-0.5-3.8-1.4c-0.9-1-1.3-2.3-1.3-4.1v-1.4h3.3v1.6c0,0.8,0.2,1.4,0.5,1.7
			c0.3,0.3,0.8,0.5,1.3,0.5c0.5,0,1-0.2,1.3-0.5c0.3-0.3,0.5-0.9,0.5-1.7c0-0.8-0.2-1.4-0.5-2c-0.3-0.6-0.8-1.1-1.3-1.6
			c-0.5-0.5-1-1-1.6-1.5c-0.6-0.5-1.1-1.1-1.6-1.7c-0.5-0.6-0.9-1.3-1.3-2.1C69.6,48,69.4,47.1,69.4,46z"/>
		<path class="st0" d="M81.2,46c0-1.8,0.4-3.1,1.3-4.1c0.8-1,2.1-1.4,3.8-1.4c1.7,0,3,0.5,3.8,1.4c0.8,1,1.3,2.3,1.3,4.1v0.7h-3.3
			v-0.9c0-0.8-0.2-1.4-0.5-1.7c-0.3-0.3-0.7-0.5-1.3-0.5c-0.5,0-1,0.2-1.3,0.5c-0.3,0.3-0.5,0.9-0.5,1.7c0,0.8,0.2,1.4,0.5,2
			c0.3,0.6,0.8,1.1,1.3,1.6c0.5,0.5,1,1,1.6,1.5c0.6,0.5,1.1,1.1,1.6,1.7c0.5,0.6,0.9,1.3,1.3,2.1c0.3,0.8,0.5,1.7,0.5,2.7
			c0,1.8-0.4,3.1-1.3,4.1c-0.9,1-2.2,1.4-3.8,1.4c-1.7,0-3-0.5-3.8-1.4c-0.9-1-1.3-2.3-1.3-4.1v-1.4h3.3v1.6c0,0.8,0.2,1.4,0.5,1.7
			c0.3,0.3,0.8,0.5,1.3,0.5c0.5,0,1-0.2,1.3-0.5c0.3-0.3,0.5-0.9,0.5-1.7c0-0.8-0.2-1.4-0.5-2c-0.3-0.6-0.8-1.1-1.3-1.6
			c-0.5-0.5-1-1-1.6-1.5c-0.6-0.5-1.1-1.1-1.6-1.7c-0.5-0.6-0.9-1.3-1.3-2.1C81.3,48,81.2,47.1,81.2,46z"/>
		<path class="st0" d="M93.4,40.7h3.5v18.9h5.7v3.1h-9.1V40.7z"/>
	</g>
	<g>
		<path class="st1" d="M75.1,12.9c1.8,0,3.1,0.4,3.9,1.3c0.8,0.8,1.2,2.1,1.2,3.8v0.8c0,1.1-0.2,2.1-0.5,2.8
			c-0.4,0.7-0.9,1.3-1.7,1.6c0.9,0.4,1.6,0.9,2,1.7c0.4,0.8,0.6,1.8,0.6,3v1.8c0,1.7-0.4,3-1.3,3.9c-0.9,0.9-2.2,1.3-3.9,1.3h-5.4
			v-22H75.1z M73.3,16v5.8h1.4c0.6,0,1.2-0.2,1.5-0.5c0.4-0.3,0.5-0.9,0.5-1.8v-1.2c0-0.8-0.1-1.4-0.4-1.7C76,16.2,75.6,16,75,16
			H73.3z M73.3,24.9v6.8h2c0.6,0,1-0.2,1.3-0.5c0.3-0.3,0.5-0.9,0.5-1.7v-1.9c0-1-0.2-1.7-0.5-2.1c-0.3-0.4-0.9-0.6-1.7-0.6H73.3z"
			/>
		<path class="st1" d="M86.1,22.1h4.7v3.1h-4.7v6.4h6v3.1h-9.4v-22H92V16h-6V22.1z"/>
		<path class="st1" d="M97.4,27.6L93,12.9h3.6l2.6,10l2.6-10h3.3l-4.4,14.7v7.3h-3.5V27.6z"/>
		<path class="st1" d="M105.9,18.1c0-1.8,0.5-3.1,1.4-4.1c0.9-1,2.2-1.4,3.9-1.4s3,0.5,3.9,1.4c0.9,1,1.4,2.3,1.4,4.1v11.4
			c0,1.8-0.5,3.1-1.4,4.1c-0.9,1-2.2,1.4-3.9,1.4s-3-0.5-3.9-1.4c-0.9-1-1.4-2.3-1.4-4.1V18.1z M109.3,29.8c0,0.8,0.2,1.4,0.5,1.7
			c0.3,0.3,0.8,0.5,1.3,0.5c0.5,0,1-0.2,1.3-0.5c0.3-0.3,0.5-0.9,0.5-1.7V17.9c0-0.8-0.2-1.4-0.5-1.7c-0.3-0.3-0.8-0.5-1.3-0.5
			c-0.5,0-1,0.2-1.3,0.5c-0.3,0.3-0.5,0.9-0.5,1.7V29.8z"/>
		<path class="st1" d="M121.7,18.9v15.9h-3.1v-22h4.3l3.6,13.2V12.9h3.1v22H126L121.7,18.9z"/>
		<path class="st1" d="M132,12.9h5.5c1.7,0,3,0.5,3.9,1.4c0.8,0.9,1.3,2.3,1.3,4.1v11.1c0,1.8-0.4,3.1-1.3,4.1
			c-0.8,0.9-2.1,1.4-3.9,1.4H132V12.9z M135.5,16v15.7h1.9c0.5,0,1-0.2,1.3-0.5c0.3-0.3,0.5-0.9,0.5-1.7V18.1c0-0.8-0.2-1.4-0.5-1.7
			c-0.3-0.3-0.7-0.5-1.3-0.5H135.5z"/>
	</g>
	<path class="st2" d="M42.2,27.7h-1c0-6.1-4.5-11-10.1-11s-10.1,5-10.1,11h-1c-0.9,0-1.7,0.8-1.7,1.7v14.5c0,0.9,0.8,1.7,1.7,1.7
		h22.3c0.9,0,1.7-0.8,1.7-1.7V29.4C43.8,28.4,43.1,27.7,42.2,27.7z M31,19.6c4,0,7.2,3.6,7.2,8.1H23.8C23.8,23.2,27,19.6,31,19.6z"
		/>
</g>
</svg>
