<?xml version="1.0" encoding="utf-8"?>
<!-- Generator: $$$/GeneralStr/196=Adobe Illustrator 27.6.0, SVG Export Plug-In . SVG Version: 6.00 Build 0)  -->
<svg version="1.1" id="Ebene_1" xmlns="http://www.w3.org/2000/svg" xmlns:xlink="http://www.w3.org/1999/xlink" x="0px" y="0px"
	 viewBox="0 0 1214.9 585.8" style="enable-background:new 0 0 1214.9 585.8;" xml:space="preserve">
<style type="text/css">
	.st0{fill:#0075BF;}
	.st1{fill:#47536B;}
</style>
<g>
	<path class="st0" d="M589.1,388.4c0-15.2,3.6-26.9,10.9-35c7.3-8.1,18.1-12.2,32.6-12.2c14.5,0,25.4,4.1,32.6,12.2
		c7.2,8.2,10.9,19.8,10.9,35v5.9h-27.9v-7.8c0-6.8-1.3-11.6-3.9-14.4c-2.6-2.8-6.2-4.2-10.9-4.2c-4.7,0-8.3,1.4-10.9,4.2
		c-2.6,2.8-3.9,7.6-3.9,14.4c0,6.4,1.4,12.1,4.3,17.1c2.9,4.9,6.4,9.6,10.7,14c4.3,4.4,8.9,8.8,13.8,13.2c4.9,4.4,9.5,9.2,13.8,14.4
		c4.3,5.2,7.9,11.1,10.7,17.7c2.9,6.6,4.3,14.4,4.3,23.4c0,15.2-3.7,26.9-11.1,35c-7.4,8.2-18.4,12.2-32.9,12.2
		c-14.5,0-25.5-4.1-32.9-12.2c-7.4-8.1-11.1-19.8-11.1-35v-11.5h27.9V488c0,6.8,1.4,11.5,4.2,14.2c2.8,2.7,6.5,4,11.1,4
		c4.7,0,8.4-1.3,11.1-4c2.8-2.7,4.2-7.4,4.2-14.2c0-6.4-1.4-12.1-4.3-17.1c-2.9-4.9-6.4-9.6-10.7-14c-4.3-4.4-8.9-8.8-13.8-13.2
		c-4.9-4.4-9.5-9.2-13.8-14.4c-4.3-5.2-7.9-11.1-10.7-17.7C590.5,405.1,589.1,397.4,589.1,388.4"/>
	<path class="st0" d="M689.6,388.4c0-15.2,3.6-26.9,10.9-35c7.3-8.1,18.1-12.2,32.6-12.2c14.5,0,25.4,4.1,32.6,12.2
		c7.2,8.2,10.9,19.8,10.9,35v5.9h-27.9v-7.8c0-6.8-1.3-11.6-3.9-14.4c-2.6-2.8-6.2-4.2-10.9-4.2c-4.7,0-8.3,1.4-10.9,4.2
		c-2.6,2.8-3.9,7.6-3.9,14.4c0,6.4,1.4,12.1,4.3,17.1c2.9,4.9,6.4,9.6,10.7,14c4.3,4.4,8.9,8.8,13.8,13.2c4.9,4.4,9.5,9.2,13.8,14.4
		c4.3,5.2,7.9,11.1,10.7,17.7c2.9,6.6,4.3,14.4,4.3,23.4c0,15.2-3.7,26.9-11.1,35c-7.4,8.2-18.4,12.2-32.9,12.2
		c-14.5,0-25.5-4.1-32.9-12.2c-7.4-8.1-11.1-19.8-11.1-35v-11.5h27.9V488c0,6.8,1.4,11.5,4.2,14.2c2.8,2.7,6.5,4,11.1,4
		c4.7,0,8.4-1.3,11.1-4c2.8-2.7,4.2-7.4,4.2-14.2c0-6.4-1.4-12.1-4.3-17.1c-2.9-4.9-6.4-9.6-10.7-14c-4.3-4.4-8.9-8.8-13.8-13.2
		c-4.9-4.4-9.5-9.2-13.8-14.4c-4.3-5.2-7.9-11.1-10.7-17.7C691,405.1,689.6,397.4,689.6,388.4"/>
	<polygon class="st0" points="793.8,343.3 823.3,343.3 823.3,504.4 871.9,504.4 871.9,531.3 793.8,531.3 	"/>
	<path class="st1" d="M637.5,104.9c15.4,0,26.5,3.6,33.4,10.7c6.9,7.2,10.3,18,10.3,32.5v6.7c0,9.7-1.5,17.6-4.6,23.9
		c-3,6.3-7.9,10.9-14.5,14c8.1,3,13.7,8,17.1,14.9c3.3,6.9,5,15.4,5,25.4v15.3c0,14.5-3.8,25.6-11.3,33.2
		c-7.5,7.6-18.7,11.4-33.6,11.4h-46.5v-188H637.5z M622.4,131.8v49.7H634c5.5,0,9.9-1.4,13-4.3c3.1-2.9,4.7-8.1,4.7-15.6v-10.5
		c0-6.8-1.2-11.7-3.6-14.8c-2.4-3-6.2-4.6-11.4-4.6H622.4z M622.4,208.3v57.7h16.9c5,0,8.8-1.3,11.4-4c2.6-2.7,3.9-7.5,3.9-14.5
		v-16.4c0-8.8-1.5-14.8-4.4-18c-3-3.2-7.8-4.8-14.6-4.8H622.4z"/>
	<polygon class="st1" points="731.5,184.1 772,184.1 772,211 731.5,211 731.5,266.1 782.5,266.1 782.5,292.9 701.9,292.9 
		701.9,104.9 782.5,104.9 782.5,131.8 731.5,131.8 	"/>
	<polygon class="st1" points="828.4,230.6 791.1,104.9 822,104.9 844.5,190.6 867.1,104.9 895.3,104.9 858,230.6 858,292.9 
		828.4,292.9 	"/>
	<path class="st1" d="M900.7,150c0-15.2,3.8-26.9,11.5-35c7.7-8.1,18.8-12.2,33.3-12.2c14.5,0,25.6,4.1,33.3,12.2
		c7.7,8.1,11.5,19.8,11.5,35v97.8c0,15.2-3.9,26.9-11.5,35c-7.7,8.2-18.8,12.2-33.3,12.2c-14.5,0-25.6-4.1-33.3-12.2
		c-7.7-8.1-11.5-19.8-11.5-35V150z M930.2,249.7c0,6.8,1.4,11.6,4.2,14.4c2.8,2.8,6.5,4.2,11.1,4.2c4.7,0,8.4-1.4,11.1-4.2
		c2.8-2.8,4.2-7.6,4.2-14.4V148.2c0-6.8-1.4-11.6-4.2-14.4c-2.8-2.8-6.5-4.2-11.1-4.2c-4.7,0-8.4,1.4-11.1,4.2
		c-2.8,2.8-4.2,7.6-4.2,14.4V249.7z"/>
	<polygon class="st1" points="1035.8,156.7 1035.8,292.9 1009.2,292.9 1009.2,104.9 1046.2,104.9 1076.6,217.4 1076.6,104.9 
		1102.9,104.9 1102.9,292.9 1072.6,292.9 	"/>
	<path class="st1" d="M1124.1,104.9h46.7c14.9,0,25.9,3.9,33.2,11.8c7.3,7.9,10.9,19.4,10.9,34.6v95.1c0,15.2-3.6,26.8-10.9,34.6
		c-7.3,7.9-18.3,11.8-33.2,11.8h-46.7V104.9z M1153.7,131.8v134.3h16.7c4.7,0,8.3-1.3,11-4c2.7-2.7,4-7.4,4-14.2V150
		c0-6.8-1.3-11.5-4-14.2c-2.7-2.7-6.4-4-11-4H1153.7z"/>
	<path class="st0" d="M260.7,162.4c-33.9,0-61.4,31.1-61.4,69.2h122.8C322.1,193.5,294.5,162.4,260.7,162.4"/>
	<path class="st0" d="M260.7,0c0,0-150.5,94.1-260.7,99.4C2.7,223,67.2,507.9,260.7,585.8c193.5-77.9,258-362.8,260.7-486.4
		C411.2,94.1,260.7,0,260.7,0 M356.1,384.3H165.3c-7.9,0-14.4-6.5-14.4-14.4V246c0-7.9,6.5-14.4,14.4-14.4h8.8
		c0-52.1,38.8-94.4,86.6-94.4s86.6,42.4,86.6,94.4h8.8c7.9,0,14.4,6.5,14.4,14.4v123.9C370.4,377.8,364,384.3,356.1,384.3"/>
</g>
</svg>
