<?xml version="1.0" encoding="utf-8"?>
<!-- Generator: Adobe Illustrator 23.0.3, SVG Export Plug-In . SVG Version: 6.00 Build 0)  -->
<svg version="1.1" id="Ebene_1" xmlns="http://www.w3.org/2000/svg" xmlns:xlink="http://www.w3.org/1999/xlink" x="0px" y="0px"
	 viewBox="0 0 323.6 366.5" style="enable-background:new 0 0 323.6 366.5;" xml:space="preserve">
<style type="text/css">
	.st0{clip-path:url(#SVGID_2_);}
	.st1{fill:#FFFFFF;}
</style>
<g>
	<defs>
		<rect id="SVGID_1_" width="323.6" height="366.5"/>
	</defs>
	<clipPath id="SVGID_2_">
		<use xlink:href="#SVGID_1_"  style="overflow:visible;"/>
	</clipPath>
	<g class="st0">
		<polygon class="st1" points="467.3,245.7 467.3,245.7 467.3,245.7 		"/>
		<polygon class="st1" points="461.2,235.1 461.3,235.2 461.2,235.3 		"/>
		<polygon class="st1" points="467.2,224.7 467.4,224.5 467.4,224.8 		"/>
		<polygon class="st1" points="461.1,213.9 461.5,214.1 461.1,214.4 		"/>
		<polygon class="st1" points="479.5,224.6 479.5,224.7 479.5,224.7 		"/>
		<polygon class="st1" points="467,203.6 467.5,203.3 467.5,203.8 		"/>
		<polygon class="st1" points="461,192.7 461.6,193.1 461,193.4 		"/>
		<polygon class="st1" points="485.5,214.1 485.6,214.1 485.6,214.2 		"/>
		<polygon class="st1" points="479.4,203.4 479.7,203.6 479.4,203.7 		"/>
		<polygon class="st1" points="467,182.5 467.5,182.2 467.5,182.8 		"/>
		<polygon class="st1" points="461,171.6 461.7,172 461,172.4 		"/>
		<polygon class="st1" points="497.7,214.1 497.7,214.1 497.7,214.1 		"/>
		<polygon class="st1" points="485.5,193.1 485.6,193 485.6,193.1 		"/>
		<polygon class="st1" points="479.4,182.4 479.7,182.5 479.4,182.7 		"/>
		<polygon class="st1" points="467,161.4 467.5,161.2 467.5,161.7 		"/>
		<polygon class="st1" points="461,150.6 461.6,150.9 461,151.2 		"/>
		<polygon class="st1" points="503.8,203.6 503.8,203.6 503.8,203.6 		"/>
		<polygon class="st1" points="497.7,193.1 497.7,193.1 497.7,193.1 		"/>
		<polygon class="st1" points="485.5,172 485.6,171.9 485.6,172 		"/>
		<polygon class="st1" points="479.4,161.4 479.6,161.4 479.4,161.5 		"/>
		<polygon class="st1" points="467.1,140.4 467.4,140.2 467.4,140.6 		"/>
		<polygon class="st1" points="461.1,129.6 461.5,129.8 461.1,130 		"/>
		<polygon class="st1" points="479.5,140.3 479.5,140.4 479.5,140.4 		"/>
		<polygon class="st1" points="467.3,119.3 467.3,119.3 467.3,119.3 		"/>
		<g>
			<polygon class="st1" points="328.5,340.5 328.5,340.6 328.5,340.6 			"/>
			<polygon class="st1" points="316.2,340.6 316.4,340.4 316.4,340.7 			"/>
			<polygon class="st1" points="334.3,330 334.7,329.8 334.7,330.3 			"/>
			<polygon class="st1" points="309.9,329.4 311,330 309.9,330.6 			"/>
			<polygon class="st1" points="298,351.1 298.1,351 298.1,351.2 			"/>
			<polygon class="st1" points="328.1,318.8 329.3,319.5 328.1,320.2 			"/>
			<polygon class="st1" points="315.2,319.5 316.9,318.5 316.9,320.4 			"/>
			<polygon class="st1" points="297.2,330 298.6,329.2 298.6,330.8 			"/>
			<polygon class="st1" points="291.7,340 292.6,340.6 291.7,341.1 			"/>
			<polygon class="st1" points="346.7,329.9 346.8,330 346.7,330.1 			"/>
			<polygon class="st1" points="346.3,308.2 347.6,309 346.3,309.7 			"/>
			<polygon class="st1" points="333.3,309 335.2,307.9 335.2,310 			"/>
			<polygon class="st1" points="309.3,307.3 312.2,309 309.3,310.6 			"/>
			<polygon class="st1" points="295.8,309 299.2,307 299.2,310.9 			"/>
			<polygon class="st1" points="291.1,318 293.7,319.5 291.1,321 			"/>
			<polygon class="st1" points="278.8,340.6 280.3,339.7 280.3,341.4 			"/>
			<polygon class="st1" points="273.4,350.4 274.5,351.1 273.4,351.8 			"/>
			<polygon class="st1" points="279.7,361.6 279.9,361.5 279.9,361.7 			"/>
			<polygon class="st1" points="352.6,319.5 353,319.3 353,319.7 			"/>
			<polygon class="st1" points="351.7,298.4 353.4,297.5 353.4,299.4 			"/>
			<polygon class="st1" points="327.5,296.6 330.6,298.4 327.5,300.2 			"/>
			<polygon class="st1" points="313.8,298.4 317.6,296.2 317.6,300.6 			"/>
			<polygon class="st1" points="290.4,295.6 295.2,298.4 290.4,301.2 			"/>
			<polygon class="st1" points="277.7,319.5 280.9,317.7 280.9,321.3 			"/>
			<polygon class="st1" points="272.9,328.5 275.5,330 272.9,331.5 			"/>
			<polygon class="st1" points="260.3,351.1 262.2,350 262.2,352.2 			"/>
			<polygon class="st1" points="365,319.5 365,319.5 365,319.5 			"/>
			<polygon class="st1" points="345.8,286.3 348.6,287.9 345.8,289.5 			"/>
			<polygon class="st1" points="332.2,287.9 335.8,285.8 335.8,290 			"/>
			<polygon class="st1" points="308.6,285 313.6,287.9 308.6,290.8 			"/>
			<polygon class="st1" points="294.4,287.9 300,284.6 300,291.1 			"/>
			<polygon class="st1" points="276.2,298.4 281.7,295.2 281.7,301.6 			"/>
			<polygon class="st1" points="272.2,306.3 276.8,309 272.2,311.6 			"/>
			<polygon class="st1" points="259.3,330 262.7,328 262.7,332 			"/>
			<polygon class="st1" points="254.4,338.7 257.7,340.6 254.4,342.4 			"/>
			<polygon class="st1" points="254.9,360.7 256.6,361.6 254.9,362.6 			"/>
			<polygon class="st1" points="261.2,372.2 261.8,371.8 261.8,372.5 			"/>
			<polygon class="st1" points="370.9,309 371.2,308.8 371.2,309.1 			"/>
			<polygon class="st1" points="364.7,297.8 365.7,298.4 364.7,299 			"/>
			<polygon class="st1" points="364.3,276.1 366.4,277.3 364.3,278.6 			"/>
			<polygon class="st1" points="350.9,277.3 353.8,275.6 353.8,279 			"/>
			<polygon class="st1" points="326.9,274.6 331.7,277.3 326.9,280.1 			"/>
			<polygon class="st1" points="312.6,277.3 318.2,274.1 318.2,280.6 			"/>
			<polygon class="st1" points="289.8,273.5 296.5,277.3 289.8,281.2 			"/>
			<polygon class="st1" points="275,277.3 282.2,273.2 282.2,281.5 			"/>
			<polygon class="st1" points="271.5,284 278.2,287.9 271.5,291.7 			"/>
			<polygon class="st1" points="258,309 263.4,305.8 263.4,312.1 			"/>
			<polygon class="st1" points="253.9,316.7 258.8,319.5 253.9,322.3 			"/>
			<polygon class="st1" points="240.3,340.6 244.8,338 244.8,343.2 			"/>
			<polygon class="st1" points="235.8,348.5 240.2,351.1 235.8,353.6 			"/>
			<polygon class="st1" points="241.4,361.6 244.3,359.9 244.3,363.3 			"/>
			<polygon class="st1" points="255.4,382.5 255.8,382.7 255.4,382.9 			"/>
			<polygon class="st1" points="370.2,287.9 371.5,287.1 371.5,288.6 			"/>
			<polygon class="st1" points="369.6,266.8 371.8,265.5 371.8,268.1 			"/>
			<polygon class="st1" points="345.4,264.4 349.5,266.8 345.4,269.2 			"/>
			<polygon class="st1" points="331.2,266.8 336.3,263.9 336.3,269.7 			"/>
			<polygon class="st1" points="308.1,263 314.6,266.8 308.1,270.6 			"/>
			<polygon class="st1" points="293.3,266.8 300.5,262.7 300.5,270.9 			"/>
			<polygon class="st1" points="271.1,262.3 279,266.8 271.1,271.3 			"/>
			<polygon class="st1" points="256.7,287.9 264,283.7 264,292.1 			"/>
			<polygon class="st1" points="253.2,294.4 260.1,298.4 253.2,302.4 			"/>
			<polygon class="st1" points="239.3,319.5 245.4,316 245.4,323 			"/>
			<polygon class="st1" points="235.3,326.6 241.2,330 235.3,333.4 			"/>
			<polygon class="st1" points="221.1,351.1 227.1,347.6 227.1,354.6 			"/>
			<polygon class="st1" points="236.3,370.6 239.1,372.2 236.3,373.8 			"/>
			<polygon class="st1" points="242.4,382.7 243.8,381.9 243.8,383.5 			"/>
			<polygon class="st1" points="383,287.5 383.7,287.9 383,288.2 			"/>
			<polygon class="st1" points="363.9,254.4 367.1,256.3 363.9,258.1 			"/>
			<polygon class="st1" points="350.1,256.3 354.2,253.9 354.2,258.6 			"/>
			<polygon class="st1" points="326.5,252.8 332.5,256.3 326.5,259.7 			"/>
			<polygon class="st1" points="311.8,256.3 318.6,252.4 318.6,260.2 			"/>
			<polygon class="st1" points="289.4,251.8 297.2,256.3 289.4,260.7 			"/>
			<polygon class="st1" points="274.5,256.3 282.5,251.6 282.5,260.9 			"/>
			<polygon class="st1" points="256.1,266.8 264.3,262 264.3,271.6 			"/>
			<polygon class="st1" points="252.8,272.7 260.9,277.3 252.8,282 			"/>
			<polygon class="st1" points="238.2,298.4 245.9,293.9 245.9,302.9 			"/>
			<polygon class="st1" points="234.7,304.6 242.3,309 234.7,313.3 			"/>
			<polygon class="st1" points="220.1,330 227.6,325.7 227.6,334.3 			"/>
			<polygon class="st1" points="216.5,336.1 224.1,340.6 216.5,345 			"/>
			<polygon class="st1" points="217,358.1 223.1,361.6 217,365.1 			"/>
			<polygon class="st1" points="222.3,372.2 226.5,369.7 226.5,374.6 			"/>
			<polygon class="st1" points="236.8,392.5 238.1,393.2 236.8,393.9 			"/>
			<polygon class="st1" points="243.2,403.8 243.4,403.6 243.4,403.9 			"/>
			<polygon class="st1" points="388.8,277.3 389.6,276.9 389.6,277.8 			"/>
			<polygon class="st1" points="382.7,265.9 384.3,266.8 382.7,267.7 			"/>
			<polygon class="st1" points="382.4,244.3 384.9,245.7 382.4,247.1 			"/>
			<polygon class="st1" points="368.9,245.7 372.2,243.9 372.2,247.6 			"/>
			<polygon class="st1" points="345.1,242.8 350.1,245.7 345.1,248.6 			"/>
			<polygon class="st1" points="330.6,245.7 336.6,242.3 336.6,249.2 			"/>
			<polygon class="st1" points="307.8,241.5 315.1,245.7 307.8,249.9 			"/>
			<polygon class="st1" points="292.9,245.7 300.7,241.3 300.7,250.2 			"/>
			<polygon class="st1" points="271,241 279.2,245.7 271,250.5 			"/>
			<polygon class="st1" points="256,245.7 264.4,240.9 264.4,250.6 			"/>
			<polygon class="st1" points="252.7,251.3 261.2,256.3 252.7,261.2 			"/>
			<polygon class="st1" points="237.6,277.3 246.2,272.4 246.2,282.3 			"/>
			<polygon class="st1" points="234.4,282.9 243,287.9 234.4,292.9 			"/>
			<polygon class="st1" points="219.2,309 228,303.8 228,314.1 			"/>
			<polygon class="st1" points="216,314.3 225,319.5 216,324.7 			"/>
			<polygon class="st1" points="200.7,340.6 209.9,335.2 209.9,345.9 			"/>
			<polygon class="st1" points="197.6,345.7 207,351.1 197.6,356.5 			"/>
			<polygon class="st1" points="201.7,361.6 209.4,357.2 209.4,366.1 			"/>
			<polygon class="st1" points="217.7,380.4 221.7,382.7 217.7,385 			"/>
			<polygon class="st1" points="223.5,393.2 225.9,391.8 225.9,394.6 			"/>
			<polygon class="st1" points="237.2,414.2 237.4,414.3 237.2,414.4 			"/>
			<polygon class="st1" points="401.4,277.2 401.7,277.3 401.4,277.5 			"/>
			<polygon class="st1" points="388.2,256.3 389.9,255.3 389.9,257.2 			"/>
			<polygon class="st1" points="387.7,235.2 390.2,233.8 390.2,236.6 			"/>
			<polygon class="st1" points="363.6,232.8 367.7,235.2 363.6,237.6 			"/>
			<polygon class="st1" points="349.6,235.2 354.5,232.4 354.5,238 			"/>
			<polygon class="st1" points="326.3,231.4 332.9,235.2 326.3,239 			"/>
			<polygon class="st1" points="311.5,235.2 318.8,231 318.8,239.4 			"/>
			<polygon class="st1" points="289.3,230.6 297.3,235.2 289.3,239.8 			"/>
			<polygon class="st1" points="274.4,235.2 282.5,230.5 282.5,239.9 			"/>
			<polygon class="st1" points="252.7,230.4 261,235.2 252.7,240 			"/>
			<polygon class="st1" points="237.5,256.3 246.2,251.2 246.2,261.3 			"/>
			<polygon class="st1" points="234.3,261.6 243.2,266.8 234.3,272 			"/>
			<polygon class="st1" points="218.8,287.9 228.2,282.4 228.2,293.3 			"/>
			<polygon class="st1" points="215.7,292.8 225.5,298.4 215.7,304.1 			"/>
			<polygon class="st1" points="199.9,319.5 210.3,313.5 210.3,325.5 			"/>
			<polygon class="st1" points="197.2,323.9 207.8,330 197.2,336.1 			"/>
			<polygon class="st1" points="181.3,351.1 192.2,344.8 192.2,357.4 			"/>
			<polygon class="st1" points="198.3,367.9 205.7,372.2 198.3,376.5 			"/>
			<polygon class="st1" points="203.1,382.7 208.7,379.5 208.7,385.9 			"/>
			<polygon class="st1" points="218.3,402.5 220.4,403.8 218.3,405 			"/>
			<polygon class="st1" points="224.5,414.3 225.4,413.8 225.4,414.9 			"/>
			<polygon class="st1" points="407.3,266.8 407.7,266.5 407.7,267.1 			"/>
			<polygon class="st1" points="401.1,255.6 402.2,256.3 401.1,256.9 			"/>
			<polygon class="st1" points="382.2,222.8 385.4,224.7 382.2,226.6 			"/>
			<polygon class="st1" points="368.3,224.7 372.4,222.3 372.4,227 			"/>
			<polygon class="st1" points="344.9,221.4 350.5,224.7 344.9,227.9 			"/>
			<polygon class="st1" points="330.3,224.7 336.7,220.9 336.7,228.4 			"/>
			<polygon class="st1" points="307.8,220.4 315.2,224.7 307.8,228.9 			"/>
			<polygon class="st1" points="292.9,224.7 300.7,220.2 300.7,229.1 			"/>
			<polygon class="st1" points="271.2,220.2 278.9,224.7 271.2,229.1 			"/>
			<polygon class="st1" points="256.5,224.7 264.1,220.2 264.1,229.1 			"/>
			<polygon class="st1" points="237.9,235.2 246.1,230.5 246.1,239.9 			"/>
			<polygon class="st1" points="234.4,240.8 243,245.7 234.4,250.7 			"/>
			<polygon class="st1" points="218.9,266.8 228.2,261.4 228.2,272.2 			"/>
			<polygon class="st1" points="215.8,271.7 225.5,277.3 215.8,282.9 			"/>
			<polygon class="st1" points="199.6,298.4 210.5,292.2 210.5,304.7 			"/>
			<polygon class="st1" points="197,302.4 208.3,309 197,315.5 			"/>
			<polygon class="st1" points="180.7,330 192.5,323.2 192.5,336.8 			"/>
			<polygon class="st1" points="178.5,333.6 190.6,340.6 178.5,347.6 			"/>
			<polygon class="st1" points="178.9,355.4 189.7,361.6 178.9,367.9 			"/>
			<polygon class="st1" points="182.6,372.2 191.6,367 191.6,377.3 			"/>
			<polygon class="st1" points="199.1,390.3 204.1,393.2 199.1,396.2 			"/>
			<polygon class="st1" points="204.7,403.8 207.9,401.9 207.9,405.7 			"/>
			<polygon class="st1" points="218.7,424.4 219.6,424.8 218.7,425.3 			"/>
			<polygon class="st1" points="225.1,435.4 225.1,435.4 225.1,435.4 			"/>
			<polygon class="st1" points="419.7,266.7 419.9,266.8 419.7,266.9 			"/>
			<polygon class="st1" points="406.8,245.7 408,245 408,246.4 			"/>
			<polygon class="st1" points="400.9,234.1 402.7,235.2 400.9,236.3 			"/>
			<polygon class="st1" points="400.6,212.6 403.2,214.1 400.6,215.6 			"/>
			<polygon class="st1" points="387.2,214.1 390.4,212.3 390.4,216 			"/>
			<polygon class="st1" points="363.4,211.4 368.1,214.1 363.4,216.8 			"/>
			<polygon class="st1" points="349.3,214.1 354.6,211 354.6,217.2 			"/>
			<polygon class="st1" points="326.3,210.3 332.9,214.1 326.3,217.9 			"/>
			<polygon class="st1" points="311.7,214.1 318.6,210.1 318.6,218.1 			"/>
			<polygon class="st1" points="289.6,210 296.8,214.1 289.6,218.3 			"/>
			<polygon class="st1" points="275.1,214.1 282.2,210 282.2,218.2 			"/>
			<polygon class="st1" points="253.2,210.2 260,214.1 253.2,218.1 			"/>
			<polygon class="st1" points="239,214.1 245.5,210.3 245.5,217.9 			"/>
			<polygon class="st1" points="234.8,220.4 242.2,224.7 234.8,228.9 			"/>
			<polygon class="st1" points="219.3,245.7 228,240.7 228,250.7 			"/>
			<polygon class="st1" points="216,251 225.1,256.3 216,261.5 			"/>
			<polygon class="st1" points="200,277.3 210.3,271.4 210.3,283.3 			"/>
			<polygon class="st1" points="197.1,281.5 208.1,287.9 197.1,294.2 			"/>
			<polygon class="st1" points="180.4,309 192.7,301.9 192.7,316 			"/>
			<polygon class="st1" points="178.3,312.1 191,319.5 178.3,326.9 			"/>
			<polygon class="st1" points="161.6,340.6 174.7,333 174.7,348.1 			"/>
			<polygon class="st1" points="159.8,343.5 173.1,351.1 159.8,358.7 			"/>
			<polygon class="st1" points="162.2,361.6 174.4,354.6 174.4,368.7 			"/>
			<polygon class="st1" points="179.7,377.8 188.2,382.7 179.7,387.6 			"/>
			<polygon class="st1" points="184.3,393.2 190.7,389.5 190.7,397 			"/>
			<polygon class="st1" points="199.8,412.6 202.7,414.3 199.8,416 			"/>
			<polygon class="st1" points="205.7,424.8 207.4,423.9 207.4,425.8 			"/>
			<polygon class="st1" points="425.6,256.3 425.9,256.1 425.9,256.5 			"/>
			<polygon class="st1" points="419.5,245.3 420.3,245.7 419.5,246.2 			"/>
			<polygon class="st1" points="406.2,224.7 408.2,223.5 408.2,225.8 			"/>
			<polygon class="st1" points="405.9,203.6 408.4,202.1 408.4,205 			"/>
			<polygon class="st1" points="382,201.5 385.7,203.6 382,205.7 			"/>
			<polygon class="st1" points="368.2,203.6 372.5,201.1 372.5,206.1 			"/>
			<polygon class="st1" points="344.9,200.5 350.4,203.6 344.9,206.7 			"/>
			<polygon class="st1" points="330.7,203.6 336.5,200.2 336.5,207 			"/>
			<polygon class="st1" points="308.2,200 314.4,203.6 308.2,207.2 			"/>
			<polygon class="st1" points="293.9,203.6 300.2,199.9 300.2,207.2 			"/>
			<polygon class="st1" points="271.8,200.1 277.8,203.6 271.8,207.1 			"/>
			<polygon class="st1" points="257.7,203.6 263.6,200.2 263.6,207 			"/>
			<polygon class="st1" points="235.5,200.5 240.9,203.6 235.5,206.7 			"/>
			<polygon class="st1" points="220.3,224.7 227.5,220.5 227.5,228.8 			"/>
			<polygon class="st1" points="216.3,230.5 224.4,235.2 216.3,239.9 			"/>
			<polygon class="st1" points="200.6,256.3 209.9,250.9 209.9,261.6 			"/>
			<polygon class="st1" points="197.4,261 207.4,266.8 197.4,272.6 			"/>
			<polygon class="st1" points="180.9,287.9 192.5,281.2 192.5,294.6 			"/>
			<polygon class="st1" points="178.4,291.2 190.8,298.4 178.4,305.6 			"/>
			<polygon class="st1" points="161.3,319.5 174.9,311.7 174.9,327.3 			"/>
			<polygon class="st1" points="159.7,322.1 173.4,330 159.7,337.9 			"/>
			<polygon class="st1" points="142.9,351.1 156.7,343.1 156.7,359.1 			"/>
			<polygon class="st1" points="160.4,365.4 172,372.2 160.4,378.9 			"/>
			<polygon class="st1" points="163.7,382.7 173.6,377 173.6,388.4 			"/>
			<polygon class="st1" points="180.6,400.4 186.4,403.8 180.6,407.1 			"/>
			<polygon class="st1" points="185.9,414.3 189.9,412 189.9,416.6 			"/>
			<polygon class="st1" points="200.3,434.6 201.6,435.4 200.3,436.1 			"/>
			<polygon class="st1" points="206.6,445.9 207,445.7 207,446.1 			"/>
			<polygon class="st1" points="437.9,256.2 438.1,256.3 437.9,256.4 			"/>
			<polygon class="st1" points="425.2,235.2 426.1,234.7 426.1,235.7 			"/>
			<polygon class="st1" points="419.3,223.8 420.7,224.7 419.3,225.5 			"/>
			<polygon class="st1" points="400.5,191.4 403.4,193.1 400.5,194.7 			"/>
			<polygon class="st1" points="387.1,193.1 390.4,191.1 390.4,195 			"/>
			<polygon class="st1" points="363.6,190.5 367.9,193.1 363.6,195.6 			"/>
			<polygon class="st1" points="349.7,193.1 354.4,190.3 354.4,195.8 			"/>
			<polygon class="st1" points="326.7,190 332,193.1 326.7,196.1 			"/>
			<polygon class="st1" points="312.7,193.1 318.1,189.9 318.1,196.2 			"/>
			<polygon class="st1" points="290.2,190 295.5,193.1 290.2,196.1 			"/>
			<polygon class="st1" points="276.4,193.1 281.5,190.1 281.5,196 			"/>
			<polygon class="st1" points="253.9,190.3 258.7,193.1 253.9,195.8 			"/>
			<polygon class="st1" points="240.3,193.1 244.8,190.5 244.8,195.7 			"/>
			<polygon class="st1" points="221.6,203.6 226.9,200.5 226.9,206.6 			"/>
			<polygon class="st1" points="216.9,210.5 223.2,214.1 216.9,217.7 			"/>
			<polygon class="st1" points="201.5,235.2 209.5,230.5 209.5,239.9 			"/>
			<polygon class="st1" points="197.8,240.7 206.6,245.7 197.8,250.8 			"/>
			<polygon class="st1" points="181.8,266.8 192,260.9 192,272.7 			"/>
			<polygon class="st1" points="178.8,270.9 189.9,277.3 178.8,283.8 			"/>
			<polygon class="st1" points="161.8,298.4 174.6,291 174.6,305.8 			"/>
			<polygon class="st1" points="159.7,301.1 173.3,309 159.7,316.8 			"/>
			<polygon class="st1" points="142.7,330 156.8,321.9 156.8,338.2 			"/>
			<polygon class="st1" points="141.3,332.3 155.5,340.6 141.3,348.8 			"/>
			<polygon class="st1" points="141.5,353.9 155,361.6 141.5,369.4 			"/>
			<polygon class="st1" points="143.9,372.2 156.2,365 156.2,379.3 			"/>
			<polygon class="st1" points="161.3,388.1 170.2,393.2 161.3,398.4 			"/>
			<polygon class="st1" points="165.6,403.8 172.7,399.7 172.7,407.8 			"/>
			<polygon class="st1" points="181.3,422.7 185,424.8 181.3,427 			"/>
			<polygon class="st1" points="187.1,435.4 189.3,434.1 189.3,436.6 			"/>
			<polygon class="st1" points="200.8,456.5 200.8,456.5 200.8,456.5 			"/>
			<polygon class="st1" points="443.9,245.7 444.2,245.6 444.2,245.9 			"/>
			<polygon class="st1" points="437.8,234.9 438.4,235.2 437.8,235.5 			"/>
			<polygon class="st1" points="424.8,214.1 426.3,213.3 426.3,215 			"/>
			<polygon class="st1" points="419.1,202.5 421.1,203.6 419.1,204.7 			"/>
			<polygon class="st1" points="419,181.3 421.2,182.5 419,183.7 			"/>
			<polygon class="st1" points="405.9,182.5 408.4,181.1 408.4,184 			"/>
			<polygon class="st1" points="382.1,180.6 385.5,182.5 382.1,184.4 			"/>
			<polygon class="st1" points="368.6,182.5 372.3,180.4 372.3,184.7 			"/>
			<polygon class="st1" points="345.3,180.1 349.6,182.5 345.3,185 			"/>
			<polygon class="st1" points="331.6,182.5 336.1,180 336.1,185.1 			"/>
			<polygon class="st1" points="308.8,179.9 313.2,182.5 308.8,185.1 			"/>
			<polygon class="st1" points="295.2,182.5 299.5,180 299.5,185 			"/>
			<polygon class="st1" points="272.4,180.2 276.5,182.5 272.4,184.9 			"/>
			<polygon class="st1" points="259,182.5 262.9,180.3 262.9,184.8 			"/>
			<polygon class="st1" points="236.1,180.5 239.6,182.5 236.1,184.6 			"/>
			<polygon class="st1" points="222.7,182.5 226.3,180.5 226.3,184.6 			"/>
			<polygon class="st1" points="217.5,190.5 221.9,193.1 217.5,195.6 			"/>
			<polygon class="st1" points="202.7,214.1 208.9,210.6 208.9,217.7 			"/>
			<polygon class="st1" points="198.4,220.6 205.5,224.7 198.4,228.7 			"/>
			<polygon class="st1" points="182.7,245.7 191.6,240.6 191.6,250.9 			"/>
			<polygon class="st1" points="179.3,250.7 188.9,256.3 179.3,261.8 			"/>
			<polygon class="st1" points="162.8,277.3 174.1,270.8 174.1,283.9 			"/>
			<polygon class="st1" points="160.2,280.9 172.4,287.9 160.2,294.9 			"/>
			<polygon class="st1" points="143,309 156.7,301 156.7,316.9 			"/>
			<polygon class="st1" points="141.3,311.3 155.4,319.5 141.3,327.7 			"/>
			<polygon class="st1" points="124.4,340.6 138.6,332.3 138.6,348.8 			"/>
			<polygon class="st1" points="123.1,343 137.1,351.1 123.1,359.1 			"/>
			<polygon class="st1" points="124.8,361.6 138.4,353.8 138.4,369.4 			"/>
			<polygon class="st1" points="142.2,376.2 153.5,382.7 142.2,389.2 			"/>
			<polygon class="st1" points="145.7,393.2 155.3,387.7 155.3,398.8 			"/>
			<polygon class="st1" points="162.2,410.8 168.3,414.3 162.2,417.9 			"/>
			<polygon class="st1" points="167.2,424.8 171.9,422.2 171.9,427.5 			"/>
			<polygon class="st1" points="182,445 183.6,445.9 182,446.8 			"/>
			<polygon class="st1" points="188.3,456.5 188.8,456.2 188.8,456.7 			"/>
			<polygon class="st1" points="462.3,256.3 462.3,256.3 462.3,256.3 			"/>
			<polygon class="st1" points="456.2,245.6 456.4,245.7 456.2,245.8 			"/>
			<polygon class="st1" points="443.6,224.7 444.3,224.2 444.3,225.1 			"/>
			<polygon class="st1" points="437.6,213.5 438.7,214.1 437.6,214.8 			"/>
			<polygon class="st1" points="424.6,193.1 426.4,192 426.4,194.1 			"/>
			<polygon class="st1" points="424.6,172 426.5,170.9 426.5,173.1 			"/>
			<polygon class="st1" points="400.7,170.5 403.2,172 400.7,173.4 			"/>
			<polygon class="st1" points="387.5,172 390.3,170.4 390.3,173.6 			"/>
			<polygon class="st1" points="363.9,170 367.2,172 363.9,173.9 			"/>
			<polygon class="st1" points="350.5,172 354,169.9 354,174 			"/>
			<polygon class="st1" points="327.3,169.8 331,172 327.3,174.1 			"/>
			<polygon class="st1" points="313.9,172 317.6,169.9 317.6,174.1 			"/>
			<polygon class="st1" points="290.8,169.9 294.4,172 290.8,174 			"/>
			<polygon class="st1" points="277.6,172 281,170 281,173.9 			"/>
			<polygon class="st1" points="254.5,170.2 257.6,172 254.5,173.8 			"/>
			<polygon class="st1" points="241.4,172 244.3,170.3 244.3,173.6 			"/>
			<polygon class="st1" points="218,170.3 221,172 218,173.7 			"/>
			<polygon class="st1" points="203.9,193.1 208.3,190.5 208.3,195.6 			"/>
			<polygon class="st1" points="199,200.6 204.3,203.6 199,206.6 			"/>
			<polygon class="st1" points="183.9,224.7 190.9,220.6 190.9,228.7 			"/>
			<polygon class="st1" points="179.8,230.6 187.8,235.2 179.8,239.8 			"/>
			<polygon class="st1" points="164.1,256.3 173.5,250.8 173.5,261.7 			"/>
			<polygon class="st1" points="160.9,261 171,266.8 160.9,272.7 			"/>
			<polygon class="st1" points="144.1,287.9 156.1,280.9 156.1,294.8 			"/>
			<polygon class="st1" points="141.7,291 154.6,298.4 141.7,305.9 			"/>
			<polygon class="st1" points="124.5,319.5 138.5,311.4 138.5,327.6 			"/>
			<polygon class="st1" points="123.1,321.9 137.1,330 123.1,338.2 			"/>
			<polygon class="st1" points="106.5,351.1 120.1,343.3 120.1,358.9 			"/>
			<polygon class="st1" points="123.6,365 136.1,372.2 123.6,379.4 			"/>
			<polygon class="st1" points="126.3,382.7 137.6,376.2 137.6,389.2 			"/>
			<polygon class="st1" points="143.3,399.1 151.4,403.8 143.3,408.4 			"/>
			<polygon class="st1" points="147.7,414.3 154.3,410.5 154.3,418.1 			"/>
			<polygon class="st1" points="163,433.2 166.8,435.4 163,437.6 			"/>
			<polygon class="st1" points="168.8,445.9 171.1,444.6 171.1,447.2 			"/>
			<polygon class="st1" points="182.5,466.9 182.6,467 182.5,467.1 			"/>
			<polygon class="st1" points="462.1,235.2 462.4,235 462.4,235.4 			"/>
			<polygon class="st1" points="456.1,224.4 456.6,224.7 456.1,225 			"/>
			<polygon class="st1" points="443.3,203.6 444.5,202.9 444.5,204.2 			"/>
			<polygon class="st1" points="437.5,192.2 438.9,193.1 437.5,193.9 			"/>
			<polygon class="st1" points="419.1,160.3 421,161.4 419.1,162.6 			"/>
			<polygon class="st1" points="406.2,161.4 408.3,160.2 408.3,162.7 			"/>
			<polygon class="st1" points="382.4,160 384.9,161.4 382.4,162.9 			"/>
			<polygon class="st1" points="369.3,161.4 372,159.9 372,163 			"/>
			<polygon class="st1" points="345.8,159.8 348.7,161.4 345.8,163.1 			"/>
			<polygon class="st1" points="332.6,161.4 335.6,159.7 335.6,163.2 			"/>
			<polygon class="st1" points="309.3,159.8 312.2,161.4 309.3,163.1 			"/>
			<polygon class="st1" points="296.2,161.4 299,159.8 299,163.1 			"/>
			<polygon class="st1" points="272.9,159.9 275.5,161.4 272.9,163 			"/>
			<polygon class="st1" points="260,161.4 262.4,160 262.4,162.9 			"/>
			<polygon class="st1" points="236.5,160.1 238.8,161.4 236.5,162.8 			"/>
			<polygon class="st1" points="223.6,161.4 225.9,160.1 225.9,162.8 			"/>
			<polygon class="st1" points="204.8,172 207.9,170.2 207.9,173.8 			"/>
			<polygon class="st1" points="199.5,180.4 203.2,182.5 199.5,184.6 			"/>
			<polygon class="st1" points="185.1,203.6 190.3,200.6 190.3,206.6 			"/>
			<polygon class="st1" points="180.5,210.7 186.5,214.1 180.5,217.6 			"/>
			<polygon class="st1" points="165.2,235.2 172.9,230.7 172.9,239.7 			"/>
			<polygon class="st1" points="161.5,240.9 169.9,245.7 161.5,250.6 			"/>
			<polygon class="st1" points="145.5,266.8 155.4,261.1 155.4,272.5 			"/>
			<polygon class="st1" points="142.4,271.1 153.2,277.3 142.4,283.6 			"/>
			<polygon class="st1" points="125.4,298.4 138.1,291.1 138.1,305.7 			"/>
			<polygon class="st1" points="123.3,301.2 136.7,309 123.3,316.7 			"/>
			<polygon class="st1" points="106.5,330 120.1,322.1 120.1,337.9 			"/>
			<polygon class="st1" points="105,332.7 118.6,340.6 105,348.4 			"/>
			<polygon class="st1" points="105.3,354.3 118,361.6 105.3,369 			"/>
			<polygon class="st1" points="107.5,372.2 119.6,365.2 119.6,379.1 			"/>
			<polygon class="st1" points="124.5,387.6 134.3,393.2 124.5,398.9 			"/>
			<polygon class="st1" points="128.4,403.8 136.6,399.1 136.6,408.5 			"/>
			<polygon class="st1" points="144.2,421.7 149.6,424.8 144.2,428 			"/>
			<polygon class="st1" points="149.4,435.4 153.4,433.1 153.4,437.7 			"/>
			<polygon class="st1" points="163.8,455.6 165.2,456.5 163.8,457.3 			"/>
			<polygon class="st1" points="170,467 170.5,466.7 170.5,467.3 			"/>
			<polygon class="st1" points="461.9,214.1 462.5,213.8 462.5,214.5 			"/>
			<polygon class="st1" points="456,203.1 456.8,203.6 456,204.1 			"/>
			<polygon class="st1" points="443.2,182.5 444.5,181.8 444.5,183.3 			"/>
			<polygon class="st1" points="437.5,171.1 439,172 437.5,172.8 			"/>
			<polygon class="st1" points="437.6,150.1 438.9,150.9 437.6,151.7 			"/>
			<polygon class="st1" points="424.8,150.9 426.4,150 426.4,151.8 			"/>
			<polygon class="st1" points="400.9,149.8 402.7,150.9 400.9,152 			"/>
			<polygon class="st1" points="388,150.9 390,149.8 390,152 			"/>
			<polygon class="st1" points="364.3,149.7 366.4,150.9 364.3,152.1 			"/>
			<polygon class="st1" points="351.4,150.9 353.6,149.6 353.6,152.2 			"/>
			<polygon class="st1" points="327.8,149.6 330,150.9 327.8,152.2 			"/>
			<polygon class="st1" points="314.9,150.9 317.1,149.6 317.1,152.2 			"/>
			<polygon class="st1" points="291.3,149.7 293.4,150.9 291.3,152.1 			"/>
			<polygon class="st1" points="278.5,150.9 280.5,149.7 280.5,152.1 			"/>
			<polygon class="st1" points="254.9,149.8 256.7,150.9 254.9,152 			"/>
			<polygon class="st1" points="242.2,150.9 243.9,149.9 243.9,151.9 			"/>
			<polygon class="st1" points="218.4,149.8 220.3,150.9 218.4,152 			"/>
			<polygon class="st1" points="205.4,150.9 207.6,149.7 207.6,152.2 			"/>
			<polygon class="st1" points="199.8,159.9 202.6,161.4 199.8,163 			"/>
			<polygon class="st1" points="186.1,182.5 189.9,180.3 189.9,184.7 			"/>
			<polygon class="st1" points="181,190.5 185.5,193.1 181,195.6 			"/>
			<polygon class="st1" points="166.5,214.1 172.3,210.8 172.3,217.5 			"/>
			<polygon class="st1" points="162.1,220.9 168.6,224.7 162.1,228.4 			"/>
			<polygon class="st1" points="146.8,245.7 154.8,241.1 154.8,250.4 			"/>
			<polygon class="st1" points="143.1,251.3 151.8,256.3 143.1,261.3 			"/>
			<polygon class="st1" points="126.9,277.3 137.3,271.3 137.3,283.3 			"/>
			<polygon class="st1" points="124,281.3 135.3,287.9 124,294.4 			"/>
			<polygon class="st1" points="107,309 119.9,301.5 119.9,316.4 			"/>
			<polygon class="st1" points="105.1,311.8 118.3,319.5 105.1,327.1 			"/>
			<polygon class="st1" points="88.7,340.6 101.7,333 101.7,348.1 			"/>
			<polygon class="st1" points="87.1,343.9 99.6,351.1 87.1,358.3 			"/>
			<polygon class="st1" points="89.3,361.6 101.4,354.7 101.4,368.6 			"/>
			<polygon class="st1" points="106,376.6 116.5,382.7 106,388.8 			"/>
			<polygon class="st1" points="109.4,393.2 118.7,387.8 118.7,398.6 			"/>
			<polygon class="st1" points="125.5,410.5 132.2,414.3 125.5,418.2 			"/>
			<polygon class="st1" points="130.3,424.8 135.6,421.7 135.6,428 			"/>
			<polygon class="st1" points="145.1,444.4 147.8,445.9 145.1,447.4 			"/>
			<polygon class="st1" points="151,456.5 152.6,455.5 152.6,457.4 			"/>
			<polygon class="st1" points="164.3,477.5 164.3,477.5 164.3,477.5 			"/>
			<polygon class="st1" points="461.8,193.1 462.6,192.6 462.6,193.5 			"/>
			<polygon class="st1" points="455.9,181.9 456.9,182.5 455.9,183.1 			"/>
			<polygon class="st1" points="443.2,161.4 444.5,160.7 444.5,162.2 			"/>
			<polygon class="st1" points="443.4,140.4 444.4,139.8 444.4,141 			"/>
			<polygon class="st1" points="419.3,139.6 420.6,140.4 419.3,141.1 			"/>
			<polygon class="st1" points="406.6,140.4 408,139.6 408,141.2 			"/>
			<polygon class="st1" points="382.8,139.6 384.2,140.4 382.8,141.2 			"/>
			<polygon class="st1" points="370.1,140.4 371.6,139.5 371.6,141.2 			"/>
			<polygon class="st1" points="346.3,139.5 347.7,140.4 346.3,141.2 			"/>
			<polygon class="st1" points="333.6,140.4 335.1,139.5 335.1,141.2 			"/>
			<polygon class="st1" points="309.8,139.5 311.2,140.4 309.8,141.2 			"/>
			<polygon class="st1" points="297.2,140.4 298.5,139.6 298.5,141.2 			"/>
			<polygon class="st1" points="273.3,139.6 274.7,140.4 273.3,141.2 			"/>
			<polygon class="st1" points="260.7,140.4 262,139.6 262,141.1 			"/>
			<polygon class="st1" points="236.8,139.6 238.1,140.4 236.8,141.1 			"/>
			<polygon class="st1" points="224.1,140.4 225.6,139.6 225.6,141.2 			"/>
			<polygon class="st1" points="200.1,139.3 202,140.4 200.1,141.5 			"/>
			<polygon class="st1" points="186.7,161.4 189.5,159.8 189.5,163.1 			"/>
			<polygon class="st1" points="181.4,170 184.8,172 181.4,174 			"/>
			<polygon class="st1" points="167.4,193.1 171.8,190.5 171.8,195.6 			"/>
			<polygon class="st1" points="162.6,200.8 167.5,203.6 162.6,206.4 			"/>
			<polygon class="st1" points="148.1,224.7 154.1,221.2 154.1,228.1 			"/>
			<polygon class="st1" points="143.8,231.3 150.5,235.2 143.8,239.1 			"/>
			<polygon class="st1" points="128.5,256.3 136.5,251.6 136.5,260.9 			"/>
			<polygon class="st1" points="124.8,261.7 133.7,266.8 124.8,271.9 			"/>
			<polygon class="st1" points="108.4,287.9 119.2,281.6 119.2,294.1 			"/>
			<polygon class="st1" points="105.6,291.6 117.3,298.4 105.6,305.2 			"/>
			<polygon class="st1" points="88.8,319.5 101.6,312.1 101.6,326.9 			"/>
			<polygon class="st1" points="87,322.6 99.8,330 87,337.4 			"/>
			<polygon class="st1" points="71.2,351.1 83.1,344.2 83.1,357.9 			"/>
			<polygon class="st1" points="87.7,366.1 98.3,372.2 87.7,378.3 			"/>
			<polygon class="st1" points="90.9,382.7 100.5,377.2 100.5,388.3 			"/>
			<polygon class="st1" points="107.1,399.5 114.4,403.8 107.1,408 			"/>
			<polygon class="st1" points="111.4,414.3 117.7,410.6 117.7,418 			"/>
			<polygon class="st1" points="126.4,433.1 130.4,435.4 126.4,437.7 			"/>
			<polygon class="st1" points="132.1,445.9 134.7,444.4 134.7,447.4 			"/>
			<polygon class="st1" points="145.8,466.6 146.5,467 145.8,467.4 			"/>
			<polygon class="st1" points="152.1,477.5 152.1,477.5 152.1,477.5 			"/>
			<polygon class="st1" points="461.7,172 462.6,171.5 462.6,172.5 			"/>
			<polygon class="st1" points="455.9,160.8 456.9,161.4 455.9,162 			"/>
			<polygon class="st1" points="437.7,129.3 438.6,129.8 437.7,130.3 			"/>
			<polygon class="st1" points="425.2,129.8 426.1,129.3 426.1,130.4 			"/>
			<polygon class="st1" points="401.2,129.3 402.1,129.8 401.2,130.4 			"/>
			<polygon class="st1" points="388.7,129.8 389.6,129.3 389.6,130.4 			"/>
			<polygon class="st1" points="364.7,129.3 365.6,129.8 364.7,130.3 			"/>
			<polygon class="st1" points="352.3,129.8 353.1,129.3 353.1,130.3 			"/>
			<polygon class="st1" points="328.2,129.4 329.1,129.8 328.2,130.3 			"/>
			<polygon class="st1" points="315.8,129.8 316.6,129.4 316.6,130.3 			"/>
			<polygon class="st1" points="291.7,129.3 292.6,129.8 291.7,130.4 			"/>
			<polygon class="st1" points="279.2,129.8 280.1,129.3 280.1,130.4 			"/>
			<polygon class="st1" points="255.2,129.3 256.1,129.8 255.2,130.4 			"/>
			<polygon class="st1" points="242.7,129.8 243.7,129.3 243.7,130.4 			"/>
			<polygon class="st1" points="218.6,129.1 219.9,129.8 218.6,130.6 			"/>
			<polygon class="st1" points="205.8,129.8 207.4,128.9 207.4,130.8 			"/>
			<polygon class="st1" points="187.1,140.4 189.3,139.1 189.3,141.6 			"/>
			<polygon class="st1" points="181.7,149.4 184.2,150.9 181.7,152.4 			"/>
			<polygon class="st1" points="168,172 171.5,170 171.5,174 			"/>
			<polygon class="st1" points="163,180.3 166.8,182.5 163,184.8 			"/>
			<polygon class="st1" points="149,203.6 153.6,200.9 153.6,206.2 			"/>
			<polygon class="st1" points="144.4,211.3 149.3,214.1 144.4,217 			"/>
			<polygon class="st1" points="129.8,235.2 135.9,231.7 135.9,238.7 			"/>
			<polygon class="st1" points="125.5,241.8 132.3,245.7 125.5,249.6 			"/>
			<polygon class="st1" points="110.2,266.8 118.3,262.1 118.3,271.5 			"/>
			<polygon class="st1" points="106.4,272 115.6,277.3 106.4,282.6 			"/>
			<polygon class="st1" points="89.9,298.4 101.1,292 101.1,304.9 			"/>
			<polygon class="st1" points="87.3,302.1 99.2,309 87.3,315.8 			"/>
			<polygon class="st1" points="70.9,330 83.2,322.9 83.2,337.1 			"/>
			<polygon class="st1" points="69,333.6 81,340.6 69,347.5 			"/>
			<polygon class="st1" points="69.5,355.5 80,361.6 69.5,367.7 			"/>
			<polygon class="st1" points="72.6,372.2 82.3,366.6 82.3,377.8 			"/>
			<polygon class="st1" points="88.7,388.8 96.4,393.2 88.7,397.7 			"/>
			<polygon class="st1" points="93,403.8 99.5,400 99.5,407.6 			"/>
			<polygon class="st1" points="107.9,422.1 112.6,424.8 107.9,427.6 			"/>
			<polygon class="st1" points="113.2,435.4 116.8,433.3 116.8,437.5 			"/>
			<polygon class="st1" points="127.3,455.6 128.8,456.5 127.3,457.3 			"/>
			<polygon class="st1" points="133.4,467 134.1,466.6 134.1,467.4 			"/>
			<polygon class="st1" points="461.8,150.9 462.6,150.4 462.6,151.4 			"/>
			<polygon class="st1" points="456,139.9 456.8,140.4 456,140.8 			"/>
			<polygon class="st1" points="456.1,119.1 456.5,119.3 456.1,119.5 			"/>
			<polygon class="st1" points="443.7,119.3 444.2,119 444.2,119.6 			"/>
			<polygon class="st1" points="419.5,118.9 420.2,119.3 419.5,119.7 			"/>
			<polygon class="st1" points="407.2,119.3 407.8,119 407.8,119.6 			"/>
			<polygon class="st1" points="383.1,119.1 383.5,119.3 383.1,119.5 			"/>
			<polygon class="st1" points="370.8,119.3 371.2,119.1 371.2,119.5 			"/>
			<polygon class="st1" points="346.6,119.1 347,119.3 346.6,119.5 			"/>
			<polygon class="st1" points="334.3,119.3 334.7,119.1 334.7,119.5 			"/>
			<polygon class="st1" points="310.1,119 310.6,119.3 310.1,119.6 			"/>
			<polygon class="st1" points="297.7,119.3 298.3,119 298.3,119.6 			"/>
			<polygon class="st1" points="273.5,118.9 274.2,119.3 273.5,119.7 			"/>
			<polygon class="st1" points="261.1,119.3 261.8,118.9 261.8,119.7 			"/>
			<polygon class="st1" points="236.9,118.8 237.9,119.3 236.9,119.8 			"/>
			<polygon class="st1" points="224.3,119.3 225.5,118.6 225.5,120 			"/>
			<polygon class="st1" points="200.2,118.4 201.8,119.3 200.2,120.2 			"/>
			<polygon class="st1" points="187.3,119.3 189.2,118.2 189.2,120.4 			"/>
			<polygon class="st1" points="181.8,128.6 183.9,129.8 181.8,131.1 			"/>
			<polygon class="st1" points="168.4,150.9 171.3,149.3 171.3,152.6 			"/>
			<polygon class="st1" points="163.2,159.6 166.4,161.4 163.2,163.3 			"/>
			<polygon class="st1" points="149.5,182.5 153.4,180.3 153.4,184.7 			"/>
			<polygon class="st1" points="144.7,190.8 148.6,193.1 144.7,195.3 			"/>
			<polygon class="st1" points="131,214.1 135.3,211.6 135.3,216.6 			"/>
			<polygon class="st1" points="126.2,221.9 131,224.7 126.2,227.4 			"/>
			<polygon class="st1" points="111.6,245.7 117.6,242.3 117.6,249.2 			"/>
			<polygon class="st1" points="107.3,252.5 113.9,256.3 107.3,260.1 			"/>
			<polygon class="st1" points="91.6,277.3 100.2,272.4 100.2,282.3 			"/>
			<polygon class="st1" points="88,282.3 97.7,287.9 88,293.5 			"/>
			<polygon class="st1" points="71.4,309 82.9,302.3 82.9,315.6 			"/>
			<polygon class="st1" points="69,312.6 81,319.5 69,326.4 			"/>
			<polygon class="st1" points="53.1,340.6 64.7,333.8 64.7,347.3 			"/>
			<polygon class="st1" points="51.1,344.7 62.1,351.1 51.1,357.4 			"/>
			<polygon class="st1" points="54.1,361.6 64.2,355.8 64.2,367.4 			"/>
			<polygon class="st1" points="70.4,378.2 78.2,382.7 70.4,387.2 			"/>
			<polygon class="st1" points="74.6,393.2 81.3,389.3 81.3,397.1 			"/>
			<polygon class="st1" points="89.6,411.5 94.5,414.3 89.6,417.1 			"/>
			<polygon class="st1" points="94.7,424.8 98.7,422.5 98.7,427.2 			"/>
			<polygon class="st1" points="108.8,444.7 110.9,445.9 108.8,447.1 			"/>
			<polygon class="st1" points="114.7,456.5 116,455.7 116,457.2 			"/>
			<polygon class="st1" points="127.8,477.5 127.8,477.5 127.8,477.5 			"/>
			<polygon class="st1" points="462,129.8 462.5,129.5 462.5,130.2 			"/>
			<polygon class="st1" points="462.3,108.8 462.4,108.7 462.4,108.8 			"/>
			<polygon class="st1" points="437.9,108.6 438.2,108.8 437.9,109 			"/>
			<polygon class="st1" points="425.6,108.8 425.9,108.6 425.9,109 			"/>
			<polygon class="st1" points="401.4,108.6 401.7,108.8 401.4,108.9 			"/>
			<polygon class="st1" points="389.2,108.8 389.4,108.7 389.4,108.9 			"/>
			<polygon class="st1" points="365,108.7 365,108.8 365,108.8 			"/>
			<polygon class="st1" points="352.8,108.8 352.9,108.7 352.9,108.8 			"/>
			<polygon class="st1" points="328.4,108.7 328.6,108.8 328.4,108.9 			"/>
			<polygon class="st1" points="316.2,108.8 316.4,108.6 316.4,108.9 			"/>
			<polygon class="st1" points="291.9,108.5 292.3,108.8 291.9,109 			"/>
			<polygon class="st1" points="279.5,108.8 280,108.4 280,109.1 			"/>
			<polygon class="st1" points="255.3,108.3 256,108.8 255.3,109.2 			"/>
			<polygon class="st1" points="242.8,108.8 243.6,108.3 243.6,109.3 			"/>
			<polygon class="st1" points="218.6,108.1 219.8,108.8 218.6,109.5 			"/>
			<polygon class="st1" points="205.8,108.8 207.3,107.9 207.3,109.6 			"/>
			<polygon class="st1" points="181.9,107.6 183.8,108.8 181.9,109.9 			"/>
			<polygon class="st1" points="168.8,129.8 171.1,128.5 171.1,131.2 			"/>
			<polygon class="st1" points="163.4,138.8 166,140.4 163.4,141.9 			"/>
			<polygon class="st1" points="149.9,161.4 153.2,159.5 153.2,163.3 			"/>
			<polygon class="st1" points="144.8,170 148.3,172 144.8,174 			"/>
			<polygon class="st1" points="131.6,193.1 135,191.1 135,195 			"/>
			<polygon class="st1" points="126.6,201.6 130.1,203.6 126.6,205.6 			"/>
			<polygon class="st1" points="112.9,224.7 116.9,222.3 116.9,227 			"/>
			<polygon class="st1" points="108,232.5 112.6,235.2 108,237.9 			"/>
			<polygon class="st1" points="93.5,256.3 99.3,252.9 99.3,259.6 			"/>
			<polygon class="st1" points="89,262.9 95.8,266.8 89,270.7 			"/>
			<polygon class="st1" points="72.9,287.9 82.2,282.5 82.2,293.2 			"/>
			<polygon class="st1" points="69.6,292.4 79.9,298.4 69.6,304.4 			"/>
			<polygon class="st1" points="53.1,319.5 64.7,312.8 64.7,326.2 			"/>
			<polygon class="st1" points="50.9,323.3 62.6,330 50.9,336.8 			"/>
			<polygon class="st1" points="35.3,351.1 46.2,344.8 46.2,357.4 			"/>
			<polygon class="st1" points="51.9,367.3 60.4,372.2 51.9,377 			"/>
			<polygon class="st1" points="56.1,382.7 63.2,378.6 63.2,386.8 			"/>
			<polygon class="st1" points="71.4,401 76.2,403.8 71.4,406.6 			"/>
			<polygon class="st1" points="76.4,414.3 80.4,412 80.4,416.6 			"/>
			<polygon class="st1" points="90.4,434 92.9,435.4 90.4,436.8 			"/>
			<polygon class="st1" points="96.3,445.9 97.9,445 97.9,446.9 			"/>
			<polygon class="st1" points="109.4,466.8 109.8,467 109.4,467.2 			"/>
			<polygon class="st1" points="444.1,98.2 444.1,98.2 444.1,98.2 			"/>
			<polygon class="st1" points="419.7,98.2 419.8,98.2 419.7,98.3 			"/>
			<polygon class="st1" points="310.2,98.1 310.4,98.2 310.2,98.3 			"/>
			<polygon class="st1" points="297.9,98.2 298.2,98 298.2,98.4 			"/>
			<polygon class="st1" points="273.6,97.9 274.1,98.2 273.6,98.6 			"/>
			<polygon class="st1" points="261.1,98.2 261.8,97.8 261.8,98.6 			"/>
			<polygon class="st1" points="236.9,97.7 237.9,98.2 236.9,98.8 			"/>
			<polygon class="st1" points="224.3,98.2 225.5,97.6 225.5,98.9 			"/>
			<polygon class="st1" points="200.2,97.3 201.8,98.2 200.2,99.1 			"/>
			<polygon class="st1" points="187.4,98.2 189.2,97.2 189.2,99.2 			"/>
			<polygon class="st1" points="168.9,108.8 171.1,107.5 171.1,110 			"/>
			<polygon class="st1" points="163.5,117.9 165.8,119.3 163.5,120.7 			"/>
			<polygon class="st1" points="150.2,140.4 153,138.7 153,142 			"/>
			<polygon class="st1" points="145,149.1 148.1,150.9 145,152.7 			"/>
			<polygon class="st1" points="131.8,172 134.9,170.2 134.9,173.8 			"/>
			<polygon class="st1" points="126.8,180.8 129.8,182.5 126.8,184.3 			"/>
			<polygon class="st1" points="113.7,203.6 116.5,202 116.5,205.2 			"/>
			<polygon class="st1" points="108.5,212.4 111.5,214.1 108.5,215.8 			"/>
			<polygon class="st1" points="94.8,235.2 98.6,233 98.6,237.4 			"/>
			<polygon class="st1" points="89.8,243.2 94.2,245.7 89.8,248.3 			"/>
			<polygon class="st1" points="75,266.8 81.1,263.3 81.1,270.4 			"/>
			<polygon class="st1" points="70.5,273 78,277.3 70.5,281.7 			"/>
			<polygon class="st1" points="54.1,298.4 64.2,292.6 64.2,304.2 			"/>
			<polygon class="st1" points="51.1,302.6 62.1,309 51.1,315.3 			"/>
			<polygon class="st1" points="34.8,330 46.5,323.3 46.5,336.7 			"/>
			<polygon class="st1" points="32.7,333.9 44.2,340.6 32.7,347.2 			"/>
			<polygon class="st1" points="33.3,356.1 42.9,361.6 33.3,367.2 			"/>
			<polygon class="st1" points="37.2,372.2 45.3,367.5 45.3,376.9 			"/>
			<polygon class="st1" points="53,390.1 58.4,393.2 53,396.4 			"/>
			<polygon class="st1" points="58,403.8 62.3,401.3 62.3,406.2 			"/>
			<polygon class="st1" points="72.2,423.4 74.7,424.8 72.2,426.3 			"/>
			<polygon class="st1" points="77.9,435.4 79.7,434.3 79.7,436.4 			"/>
			<polygon class="st1" points="91.1,456.1 91.7,456.5 91.1,456.8 			"/>
			<polygon class="st1" points="97.2,467 97.4,466.9 97.4,467.1 			"/>
			<polygon class="st1" points="316.3,87.7 316.4,87.7 316.4,87.7 			"/>
			<polygon class="st1" points="291.9,87.5 292.2,87.7 291.9,87.9 			"/>
			<polygon class="st1" points="279.6,87.7 280,87.4 280,87.9 			"/>
			<polygon class="st1" points="255.3,87.3 256,87.7 255.3,88.1 			"/>
			<polygon class="st1" points="242.8,87.7 243.6,87.2 243.6,88.2 			"/>
			<polygon class="st1" points="218.6,87 219.8,87.7 218.6,88.3 			"/>
			<polygon class="st1" points="205.9,87.7 207.3,86.9 207.3,88.5 			"/>
			<polygon class="st1" points="181.9,86.7 183.6,87.7 181.9,88.7 			"/>
			<polygon class="st1" points="169.1,87.7 170.9,86.6 170.9,88.7 			"/>
			<polygon class="st1" points="163.6,97 165.7,98.2 163.6,99.4 			"/>
			<polygon class="st1" points="150.4,119.3 152.9,117.8 152.9,120.8 			"/>
			<polygon class="st1" points="145.1,128.2 147.8,129.8 145.1,131.4 			"/>
			<polygon class="st1" points="131.9,150.9 134.8,149.2 134.8,152.6 			"/>
			<polygon class="st1" points="126.8,159.8 129.6,161.4 126.8,163.1 			"/>
			<polygon class="st1" points="114,182.5 116.4,181.1 116.4,183.9 			"/>
			<polygon class="st1" points="108.8,191.8 111,193.1 108.8,194.3 			"/>
			<polygon class="st1" points="95.9,214.1 98.1,212.8 98.1,215.4 			"/>
			<polygon class="st1" points="90.4,223.2 92.9,224.7 90.4,226.1 			"/>
			<polygon class="st1" points="76.6,245.7 80.3,243.6 80.3,247.9 			"/>
			<polygon class="st1" points="71.5,253.6 76.1,256.3 71.5,258.9 			"/>
			<polygon class="st1" points="56.1,277.3 63.2,273.2 63.2,281.5 			"/>
			<polygon class="st1" points="51.9,282.9 60.5,287.9 51.9,292.9 			"/>
			<polygon class="st1" points="35.4,309 46.2,302.7 46.2,315.2 			"/>
			<polygon class="st1" points="32.7,312.8 44.2,319.5 32.7,326.1 			"/>
			<polygon class="st1" points="16.5,340.6 28.3,333.7 28.3,347.4 			"/>
			<polygon class="st1" points="14.5,344.6 25.8,351.1 14.5,357.6 			"/>
			<polygon class="st1" points="17.8,361.6 27.6,356 27.6,367.3 			"/>
			<polygon class="st1" points="34.4,379 40.8,382.7 34.4,386.4 			"/>
			<polygon class="st1" points="39.2,393.2 44.3,390.3 44.3,396.1 			"/>
			<polygon class="st1" points="53.8,412.7 56.7,414.3 53.8,416 			"/>
			<polygon class="st1" points="59.5,424.8 61.5,423.7 61.5,426 			"/>
			<polygon class="st1" points="72.8,445.6 73.4,445.9 72.8,446.3 			"/>
			<polygon class="st1" points="78.9,456.5 79.2,456.3 79.2,456.6 			"/>
			<polygon class="st1" points="310.2,77.1 310.3,77.2 310.2,77.2 			"/>
			<polygon class="st1" points="298,77.2 298.1,77.1 298.1,77.3 			"/>
			<polygon class="st1" points="273.6,76.9 274,77.2 273.6,77.4 			"/>
			<polygon class="st1" points="261.2,77.2 261.8,76.8 261.8,77.5 			"/>
			<polygon class="st1" points="237,76.7 237.8,77.2 237,77.7 			"/>
			<polygon class="st1" points="224.4,77.2 225.4,76.6 225.4,77.8 			"/>
			<polygon class="st1" points="200.3,76.4 201.6,77.2 200.3,77.9 			"/>
			<polygon class="st1" points="187.6,77.2 189.1,76.3 189.1,78 			"/>
			<polygon class="st1" points="163.7,76.1 165.4,77.2 163.7,78.2 			"/>
			<polygon class="st1" points="150.6,98.2 152.8,96.9 152.8,99.5 			"/>
			<polygon class="st1" points="145.2,107.3 147.7,108.8 145.2,110.2 			"/>
			<polygon class="st1" points="132.1,129.8 134.7,128.3 134.7,131.4 			"/>
			<polygon class="st1" points="126.9,138.9 129.5,140.4 126.9,141.9 			"/>
			<polygon class="st1" points="114,161.4 116.4,160.1 116.4,162.8 			"/>
			<polygon class="st1" points="108.8,170.8 110.9,172 108.8,173.2 			"/>
			<polygon class="st1" points="96.3,193.1 97.9,192.1 97.9,194 			"/>
			<polygon class="st1" points="90.8,202.7 92.3,203.6 90.8,204.4 			"/>
			<polygon class="st1" points="77.9,224.7 79.7,223.6 79.7,225.7 			"/>
			<polygon class="st1" points="72.2,233.8 74.6,235.2 72.2,236.6 			"/>
			<polygon class="st1" points="58.2,256.3 62.2,254 62.2,258.6 			"/>
			<polygon class="st1" points="53,263.8 58.2,266.8 53,269.8 			"/>
			<polygon class="st1" points="37,287.9 45.4,283 45.4,292.8 			"/>
			<polygon class="st1" points="33.2,292.8 43.1,298.4 33.2,304.1 			"/>
			<polygon class="st1" points="16.5,319.5 28.3,312.7 28.3,326.3 			"/>
			<polygon class="st1" points="14.2,323 26.4,330 14.2,337 			"/>
			<polygon class="st1" points="-1.6,351.1 10,344.4 10,357.8 			"/>
			<polygon class="st1" points="15.5,367.4 23.8,372.2 15.5,376.9 			"/>
			<polygon class="st1" points="20.1,382.7 26.5,379 26.5,386.4 			"/>
			<polygon class="st1" points="35.4,401.8 38.8,403.8 35.4,405.8 			"/>
			<polygon class="st1" points="41,414.3 43.4,412.9 43.4,415.7 			"/>
			<polygon class="st1" points="54.4,434.8 55.4,435.4 54.4,435.9 			"/>
			<polygon class="st1" points="60.6,445.9 61,445.7 61,446.1 			"/>
			<polygon class="st1" points="316.3,66.6 316.3,66.6 316.3,66.6 			"/>
			<polygon class="st1" points="291.9,66.5 292.2,66.6 291.9,66.8 			"/>
			<polygon class="st1" points="279.6,66.6 279.9,66.4 279.9,66.8 			"/>
			<polygon class="st1" points="255.3,66.3 255.9,66.6 255.3,67 			"/>
			<polygon class="st1" points="242.8,66.6 243.6,66.2 243.6,67.1 			"/>
			<polygon class="st1" points="218.7,66 219.7,66.6 218.7,67.2 			"/>
			<polygon class="st1" points="206,66.6 207.2,65.9 207.2,67.3 			"/>
			<polygon class="st1" points="182,65.8 183.5,66.6 182,67.5 			"/>
			<polygon class="st1" points="169.3,66.6 170.9,65.7 170.9,67.5 			"/>
			<polygon class="st1" points="150.8,77.2 152.7,76.1 152.7,78.2 			"/>
			<polygon class="st1" points="145.3,86.5 147.4,87.7 145.3,88.9 			"/>
			<polygon class="st1" points="132.2,108.8 134.7,107.3 134.7,110.2 			"/>
			<polygon class="st1" points="126.9,117.9 129.4,119.3 126.9,120.7 			"/>
			<polygon class="st1" points="114,140.4 116.4,139 116.4,141.7 			"/>
			<polygon class="st1" points="108.8,149.7 110.9,150.9 108.8,152.1 			"/>
			<polygon class="st1" points="96.3,172 97.9,171.1 97.9,172.9 			"/>
			<polygon class="st1" points="90.8,181.8 92.1,182.5 90.8,183.3 			"/>
			<polygon class="st1" points="78.5,203.6 79.4,203.1 79.4,204.1 			"/>
			<polygon class="st1" points="72.7,213.6 73.7,214.1 72.7,214.7 			"/>
			<polygon class="st1" points="59.6,235.2 61.5,234.1 61.5,236.3 			"/>
			<polygon class="st1" points="53.9,244.2 56.6,245.7 53.9,247.3 			"/>
			<polygon class="st1" points="39.3,266.8 44.2,264 44.2,269.6 			"/>
			<polygon class="st1" points="34.3,273.5 41,277.3 34.3,281.2 			"/>
			<polygon class="st1" points="17.7,298.4 27.7,292.7 27.7,304.2 			"/>
			<polygon class="st1" points="14.5,302.5 25.7,309 14.5,315.4 			"/>
			<polygon class="st1" points="-2.2,330 10.3,322.8 10.3,337.3 			"/>
			<polygon class="st1" points="-4.2,333.3 8.4,340.6 -4.2,347.8 			"/>
			<polygon class="st1" points="-3.5,355.6 7,361.6 -3.5,367.7 			"/>
			<polygon class="st1" points="0.4,372.2 9,367.2 9,377.1 			"/>
			<polygon class="st1" points="16.7,390.4 21.5,393.2 16.7,396 			"/>
			<polygon class="st1" points="22.1,403.8 25.5,401.8 25.5,405.7 			"/>
			<polygon class="st1" points="36.1,424.1 37.4,424.8 36.1,425.6 			"/>
			<polygon class="st1" points="42.1,435.4 42.8,435 42.8,435.8 			"/>
			<polygon class="st1" points="310.2,56 310.3,56.1 310.2,56.1 			"/>
			<polygon class="st1" points="298,56.1 298.1,56 298.1,56.2 			"/>
			<polygon class="st1" points="273.6,55.8 274,56.1 273.6,56.3 			"/>
			<polygon class="st1" points="261.2,56.1 261.8,55.8 261.8,56.4 			"/>
			<polygon class="st1" points="237,55.6 237.8,56.1 237,56.5 			"/>
			<polygon class="st1" points="224.5,56.1 225.4,55.5 225.4,56.6 			"/>
			<polygon class="st1" points="200.3,55.4 201.6,56.1 200.3,56.8 			"/>
			<polygon class="st1" points="187.7,56.1 189,55.3 189,56.8 			"/>
			<polygon class="st1" points="163.7,55.2 165.3,56.1 163.7,57 			"/>
			<polygon class="st1" points="151,56.1 152.6,55.1 152.6,57 			"/>
			<polygon class="st1" points="145.4,65.6 147.2,66.6 145.4,67.6 			"/>
			<polygon class="st1" points="132.4,87.7 134.5,86.5 134.5,88.9 			"/>
			<polygon class="st1" points="127,96.9 129.3,98.2 127,99.5 			"/>
			<polygon class="st1" points="114.1,119.3 116.4,118 116.4,120.6 			"/>
			<polygon class="st1" points="108.8,128.6 111,129.8 108.8,131.1 			"/>
			<polygon class="st1" points="96.2,150.9 97.9,149.9 97.9,151.9 			"/>
			<polygon class="st1" points="90.8,160.6 92.2,161.4 90.8,162.3 			"/>
			<polygon class="st1" points="78.6,182.5 79.4,182.1 79.4,183 			"/>
			<polygon class="st1" points="72.8,192.8 73.3,193.1 72.8,193.3 			"/>
			<polygon class="st1" points="60.5,214.1 61,213.8 61,214.4 			"/>
			<polygon class="st1" points="54.5,224.2 55.3,224.7 54.5,225.1 			"/>
			<polygon class="st1" points="41.1,245.7 43.4,244.4 43.4,247.1 			"/>
			<polygon class="st1" points="35.4,254.3 38.7,256.3 35.4,258.2 			"/>
			<polygon class="st1" points="19.9,277.3 26.6,273.5 26.6,281.2 			"/>
			<polygon class="st1" points="15.4,283 23.9,287.9 15.4,292.8 			"/>
			<polygon class="st1" points="-1.5,309 9.9,302.3 9.9,315.6 			"/>
			<polygon class="st1" points="-4.1,312.3 8.3,319.5 -4.1,326.7 			"/>
			<polygon class="st1" points="-2.3,378.7 4.6,382.7 -2.3,386.7 			"/>
			<polygon class="st1" points="2.7,393.2 7.8,390.3 7.8,396.1 			"/>
			<polygon class="st1" points="17.5,413 19.7,414.3 17.5,415.6 			"/>
			<polygon class="st1" points="23.5,424.8 24.8,424.1 24.8,425.6 			"/>
			<polygon class="st1" points="36.5,445.9 36.5,445.9 36.5,445.9 			"/>
			<polygon class="st1" points="328.5,45.5 328.5,45.5 328.5,45.6 			"/>
			<polygon class="st1" points="316.3,45.5 316.4,45.5 316.4,45.6 			"/>
			<polygon class="st1" points="291.9,45.4 292.2,45.5 291.9,45.7 			"/>
			<polygon class="st1" points="279.6,45.5 280,45.3 280,45.8 			"/>
			<polygon class="st1" points="255.3,45.2 255.9,45.5 255.3,45.9 			"/>
			<polygon class="st1" points="242.8,45.5 243.6,45.1 243.6,46 			"/>
			<polygon class="st1" points="218.7,45 219.7,45.5 218.7,46.1 			"/>
			<polygon class="st1" points="206.1,45.5 207.2,44.9 207.2,46.2 			"/>
			<polygon class="st1" points="182.1,44.8 183.4,45.5 182.1,46.3 			"/>
			<polygon class="st1" points="169.4,45.5 170.8,44.7 170.8,46.4 			"/>
			<polygon class="st1" points="145.5,44.6 147.1,45.5 145.5,46.5 			"/>
			<polygon class="st1" points="132.6,66.6 134.4,65.6 134.4,67.7 			"/>
			<polygon class="st1" points="127.1,76 129.1,77.2 127.1,78.3 			"/>
			<polygon class="st1" points="114.1,98.2 116.3,97 116.3,99.5 			"/>
			<polygon class="st1" points="108.8,107.5 111,108.8 108.8,110 			"/>
			<polygon class="st1" points="96.1,129.8 98,128.7 98,130.9 			"/>
			<polygon class="st1" points="90.7,139.4 92.4,140.4 90.7,141.4 			"/>
			<polygon class="st1" points="78.4,161.4 79.5,160.8 79.5,162.1 			"/>
			<polygon class="st1" points="72.8,171.5 73.5,172 72.8,172.4 			"/>
			<polygon class="st1" points="60.8,193.1 60.9,193 60.9,193.1 			"/>
			<polygon class="st1" points="54.7,203.5 54.8,203.6 54.7,203.6 			"/>
			<polygon class="st1" points="42.3,224.7 42.8,224.4 42.8,225 			"/>
			<polygon class="st1" points="36.1,234.5 37.3,235.2 36.1,235.9 			"/>
			<polygon class="st1" points="22.2,256.3 25.4,254.4 25.4,258.1 			"/>
			<polygon class="st1" points="16.7,264.1 21.4,266.8 16.7,269.5 			"/>
			<polygon class="st1" points="0.4,287.9 9,282.9 9,292.9 			"/>
			<polygon class="st1" points="-3.5,292.4 7,298.4 -3.5,304.4 			"/>
			<polygon class="st1" points="-1.2,401.7 2.4,403.8 -1.2,405.8 			"/>
			<polygon class="st1" points="4.6,414.3 6.9,413 6.9,415.6 			"/>
			<polygon class="st1" points="18.1,435.1 18.6,435.4 18.1,435.6 			"/>
			<polygon class="st1" points="334.6,35 334.6,35 334.6,35 			"/>
			<polygon class="st1" points="310.2,34.9 310.4,35 310.2,35.1 			"/>
			<polygon class="st1" points="297.9,35 298.2,34.9 298.2,35.2 			"/>
			<polygon class="st1" points="273.6,34.8 274,35 273.6,35.3 			"/>
			<polygon class="st1" points="261.2,35 261.8,34.7 261.8,35.4 			"/>
			<polygon class="st1" points="237,34.5 237.8,35 237,35.5 			"/>
			<polygon class="st1" points="224.5,35 225.4,34.5 225.4,35.6 			"/>
			<polygon class="st1" points="200.4,34.4 201.5,35 200.4,35.7 			"/>
			<polygon class="st1" points="187.8,35 189,34.3 189,35.7 			"/>
			<polygon class="st1" points="163.8,34.1 165.3,35 163.8,35.9 			"/>
			<polygon class="st1" points="151,35 152.6,34.1 152.6,35.9 			"/>
			<polygon class="st1" points="132.7,45.5 134.4,44.6 134.4,46.5 			"/>
			<polygon class="st1" points="127.2,55.1 128.9,56.1 127.2,57.1 			"/>
			<polygon class="st1" points="114.3,77.2 116.3,76 116.3,78.3 			"/>
			<polygon class="st1" points="108.8,86.5 110.9,87.7 108.8,88.9 			"/>
			<polygon class="st1" points="96,108.8 98,107.6 98,110 			"/>
			<polygon class="st1" points="90.6,118.2 92.5,119.3 90.6,120.4 			"/>
			<polygon class="st1" points="78.1,140.4 79.6,139.5 79.6,141.2 			"/>
			<polygon class="st1" points="72.6,150.3 73.8,150.9 72.6,151.6 			"/>
			<polygon class="st1" points="60.6,172 61,171.7 61,172.2 			"/>
			<polygon class="st1" points="54.7,182.4 54.9,182.5 54.7,182.6 			"/>
			<polygon class="st1" points="36.5,214.1 36.5,214.1 36.5,214.1 			"/>
			<polygon class="st1" points="23.7,235.2 24.7,234.6 24.7,235.8 			"/>
			<polygon class="st1" points="17.6,244.7 19.5,245.7 17.6,246.8 			"/>
			<polygon class="st1" points="3,266.8 7.7,264.1 7.7,269.5 			"/>
			<polygon class="st1" points="-2.2,273.5 4.5,277.3 -2.2,281.2 			"/>
			<polygon class="st1" points="-0.4,424.1 0.9,424.8 -0.4,425.6 			"/>
			<polygon class="st1" points="5.8,435.4 6.3,435.1 6.3,435.7 			"/>
			<polygon class="st1" points="328.5,24.5 328.5,24.5 328.5,24.5 			"/>
			<polygon class="st1" points="316.3,24.5 316.4,24.4 316.4,24.5 			"/>
			<polygon class="st1" points="291.9,24.3 292.2,24.5 291.9,24.7 			"/>
			<polygon class="st1" points="279.6,24.5 280,24.2 280,24.7 			"/>
			<polygon class="st1" points="255.3,24.1 256,24.5 255.3,24.9 			"/>
			<polygon class="st1" points="242.8,24.5 243.6,24 243.6,24.9 			"/>
			<polygon class="st1" points="218.7,23.9 219.6,24.5 218.7,25 			"/>
			<polygon class="st1" points="206.1,24.5 207.2,23.8 207.2,25.1 			"/>
			<polygon class="st1" points="182.1,23.7 183.4,24.5 182.1,25.2 			"/>
			<polygon class="st1" points="169.4,24.5 170.8,23.7 170.8,25.3 			"/>
			<polygon class="st1" points="145.5,23.6 147.1,24.5 145.5,25.4 			"/>
			<polygon class="st1" points="132.7,24.5 134.4,23.5 134.4,25.5 			"/>
			<polygon class="st1" points="127.2,34 128.9,35 127.2,36 			"/>
			<polygon class="st1" points="114.3,56.1 116.2,55 116.2,57.2 			"/>
			<polygon class="st1" points="108.9,65.5 110.8,66.6 108.9,67.7 			"/>
			<polygon class="st1" points="96,87.7 98,86.5 98,88.8 			"/>
			<polygon class="st1" points="90.6,97 92.6,98.2 90.6,99.4 			"/>
			<polygon class="st1" points="77.9,119.3 79.7,118.3 79.7,120.3 			"/>
			<polygon class="st1" points="72.5,129 74,129.8 72.5,130.7 			"/>
			<polygon class="st1" points="60.2,150.9 61.1,150.4 61.1,151.4 			"/>
			<polygon class="st1" points="54.6,161.1 55.1,161.4 54.6,161.8 			"/>
			<polygon class="st1" points="42.6,182.5 42.6,182.5 42.6,182.5 			"/>
			<polygon class="st1" points="18.2,224.6 18.4,224.7 18.2,224.8 			"/>
			<polygon class="st1" points="4.9,245.7 6.7,244.7 6.7,246.8 			"/>
			<polygon class="st1" points="-1,254.5 2.1,256.3 -1,258 			"/>
			<polygon class="st1" points="114.3,35 116.2,33.9 116.2,36.1 			"/>
			<polygon class="st1" points="108.9,44.5 110.8,45.5 108.9,46.6 			"/>
			<polygon class="st1" points="96,66.6 98,65.5 98,67.8 			"/>
			<polygon class="st1" points="90.6,76 92.6,77.2 90.6,78.3 			"/>
			<polygon class="st1" points="77.8,98.2 79.8,97.1 79.8,99.4 			"/>
			<polygon class="st1" points="72.4,107.7 74.3,108.8 72.4,109.8 			"/>
			<polygon class="st1" points="59.9,129.8 61.3,129 61.3,130.6 			"/>
			<polygon class="st1" points="54.4,139.7 55.5,140.4 54.4,141 			"/>
			<polygon class="st1" points="42.3,161.4 42.8,161.2 42.8,161.7 			"/>
			<polygon class="st1" points="36.4,171.9 36.7,172 36.4,172.1 			"/>
			<polygon class="st1" points="6,224.7 6.1,224.6 6.1,224.7 			"/>
			<polygon class="st1" points="-0.3,234.7 0.6,235.2 -0.3,235.7 			"/>
			<polygon class="st1" points="108.9,23.4 110.8,24.5 108.9,25.6 			"/>
			<polygon class="st1" points="96,45.5 98,44.4 98,46.7 			"/>
			<polygon class="st1" points="90.6,54.9 92.6,56.1 90.6,57.2 			"/>
			<polygon class="st1" points="77.7,77.2 79.8,76 79.8,78.3 			"/>
			<polygon class="st1" points="72.3,86.5 74.3,87.7 72.3,88.8 			"/>
			<polygon class="st1" points="59.7,108.8 61.4,107.7 61.4,109.8 			"/>
			<polygon class="st1" points="54.2,118.4 55.8,119.3 54.2,120.2 			"/>
			<polygon class="st1" points="41.9,140.4 42.9,139.8 42.9,141 			"/>
			<polygon class="st1" points="36.3,150.5 37,150.9 36.3,151.4 			"/>
			<polygon class="st1" points="24.2,172 24.4,171.9 24.4,172.1 			"/>
			<polygon class="st1" points="96,24.5 98,23.3 98,25.6 			"/>
			<polygon class="st1" points="90.6,33.8 92.6,35 90.6,36.2 			"/>
			<polygon class="st1" points="77.7,56.1 79.8,54.9 79.8,57.3 			"/>
			<polygon class="st1" points="72.3,65.4 74.4,66.6 72.3,67.8 			"/>
			<polygon class="st1" points="59.5,87.7 61.5,86.5 61.5,88.8 			"/>
			<polygon class="st1" points="54.1,97.1 56,98.2 54.1,99.3 			"/>
			<polygon class="st1" points="41.6,119.3 43.1,118.4 43.1,120.2 			"/>
			<polygon class="st1" points="36.1,129.1 37.4,129.8 36.1,130.6 			"/>
			<polygon class="st1" points="23.8,150.9 24.6,150.4 24.6,151.4 			"/>
			<polygon class="st1" points="18.1,161.1 18.6,161.4 18.1,161.7 			"/>
			<polygon class="st1" points="77.7,35 79.8,33.8 79.8,36.3 			"/>
			<polygon class="st1" points="72.3,44.3 74.5,45.5 72.3,46.8 			"/>
			<polygon class="st1" points="59.4,66.6 61.6,65.4 61.6,67.9 			"/>
			<polygon class="st1" points="54.1,75.9 56.2,77.2 54.1,78.4 			"/>
			<polygon class="st1" points="41.3,98.2 43.3,97.1 43.3,99.4 			"/>
			<polygon class="st1" points="35.9,107.7 37.7,108.8 35.9,109.8 			"/>
			<polygon class="st1" points="23.4,129.8 24.8,129 24.8,130.6 			"/>
			<polygon class="st1" points="17.9,139.7 19,140.4 17.9,141 			"/>
			<polygon class="st1" points="5.7,161.4 6.3,161.1 6.3,161.8 			"/>
			<polygon class="st1" points="-0.1,171.8 0.2,172 -0.1,172.1 			"/>
			<polygon class="st1" points="72.3,23.2 74.5,24.5 72.3,25.7 			"/>
			<polygon class="st1" points="59.3,45.5 61.6,44.2 61.6,46.8 			"/>
			<polygon class="st1" points="54,54.8 56.3,56.1 54,57.4 			"/>
			<polygon class="st1" points="41.2,77.2 43.3,75.9 43.3,78.4 			"/>
			<polygon class="st1" points="35.8,86.5 37.9,87.7 35.8,88.9 			"/>
			<polygon class="st1" points="23.1,108.8 25,107.7 25,109.9 			"/>
			<polygon class="st1" points="17.7,118.3 19.4,119.3 17.7,120.3 			"/>
			<polygon class="st1" points="5.3,140.4 6.5,139.7 6.5,141.1 			"/>
			<polygon class="st1" points="-0.3,150.4 0.6,150.9 -0.3,151.4 			"/>
			<polygon class="st1" points="59.3,24.5 61.6,23.2 61.6,25.8 			"/>
			<polygon class="st1" points="54,33.7 56.3,35 54,36.4 			"/>
			<polygon class="st1" points="41,56.1 43.4,54.7 43.4,57.4 			"/>
			<polygon class="st1" points="35.8,65.3 38,66.6 35.8,67.9 			"/>
			<polygon class="st1" points="22.9,87.7 25.1,86.4 25.1,88.9 			"/>
			<polygon class="st1" points="17.6,97 19.6,98.2 17.6,99.4 			"/>
			<polygon class="st1" points="5,119.3 6.7,118.3 6.7,120.3 			"/>
			<polygon class="st1" points="-0.5,129 1,129.8 -0.5,130.7 			"/>
			<polygon class="st1" points="41,35 43.4,33.6 43.4,36.4 			"/>
			<polygon class="st1" points="35.7,44.1 38.1,45.5 35.7,47 			"/>
			<polygon class="st1" points="22.8,66.6 25.1,65.3 25.1,68 			"/>
			<polygon class="st1" points="17.5,75.8 19.8,77.2 17.5,78.5 			"/>
			<polygon class="st1" points="4.7,98.2 6.8,97 6.8,99.5 			"/>
			<polygon class="st1" points="-0.6,107.6 1.3,108.8 -0.6,109.9 			"/>
			<polygon class="st1" points="35.7,23.1 38.1,24.5 35.7,25.9 			"/>
			<polygon class="st1" points="22.7,45.5 25.2,44.1 25.2,47 			"/>
			<polygon class="st1" points="17.4,54.7 19.9,56.1 17.4,57.5 			"/>
			<polygon class="st1" points="4.5,77.2 6.9,75.8 6.9,78.5 			"/>
			<polygon class="st1" points="-0.8,86.3 1.6,87.7 -0.8,89 			"/>
			<polygon class="st1" points="22.7,24.5 25.2,23 25.2,25.9 			"/>
			<polygon class="st1" points="17.4,33.5 20,35 17.4,36.5 			"/>
			<polygon class="st1" points="4.4,56.1 6.9,54.6 6.9,57.5 			"/>
			<polygon class="st1" points="-0.8,65.2 1.7,66.6 -0.8,68.1 			"/>
			<polygon class="st1" points="4.3,35 7,33.5 7,36.5 			"/>
			<polygon class="st1" points="-0.9,44 1.8,45.5 -0.9,47.1 			"/>
			<polygon class="st1" points="-0.9,22.9 1.8,24.5 -0.9,26 			"/>
		</g>
		<g>
			<polygon class="st1" points="301.5,446.9 301.5,446.9 301.5,446.9 			"/>
			<polygon class="st1" points="307.6,436.4 307.6,436.4 307.6,436.4 			"/>
			<polygon class="st1" points="289.3,468 289.4,467.9 289.4,468 			"/>
			<polygon class="st1" points="301.4,467.8 301.7,468 301.4,468.1 			"/>
			<polygon class="st1" points="307.4,457.4 307.7,457.3 307.7,457.6 			"/>
			<polygon class="st1" points="319.7,436.3 319.8,436.4 319.7,436.4 			"/>
			<polygon class="st1" points="325.8,425.8 325.9,425.8 325.9,425.9 			"/>
			<polygon class="st1" points="338,404.7 338,404.7 338,404.7 			"/>
			<polygon class="st1" points="283.2,478.5 283.3,478.5 283.2,478.5 			"/>
			<polygon class="st1" points="307.3,478.5 307.7,478.3 307.7,478.7 			"/>
			<polygon class="st1" points="319.6,457.2 320,457.4 319.6,457.6 			"/>
			<polygon class="st1" points="325.6,446.9 325.9,446.7 325.9,447.1 			"/>
			<polygon class="st1" points="337.9,425.7 338.2,425.8 337.9,426 			"/>
			<polygon class="st1" points="344,415.3 344.1,415.2 344.1,415.4 			"/>
			<polygon class="st1" points="356.2,394.2 356.3,394.2 356.2,394.3 			"/>
			<polygon class="st1" points="362.3,383.7 362.4,383.6 362.4,383.7 			"/>
			<polygon class="st1" points="289.2,489 289.4,488.9 289.4,489.2 			"/>
			<polygon class="st1" points="301.4,488.8 301.8,489 301.4,489.3 			"/>
			<polygon class="st1" points="319.6,478.2 320.1,478.5 319.6,478.8 			"/>
			<polygon class="st1" points="325.4,468 326,467.6 326,468.3 			"/>
			<polygon class="st1" points="337.8,446.6 338.3,446.9 337.8,447.2 			"/>
			<polygon class="st1" points="343.8,436.4 344.2,436.1 344.2,436.6 			"/>
			<polygon class="st1" points="356.1,415.1 356.5,415.3 356.1,415.5 			"/>
			<polygon class="st1" points="362.1,404.7 362.4,404.6 362.4,404.9 			"/>
			<polygon class="st1" points="374.4,383.6 374.6,383.7 374.4,383.8 			"/>
			<polygon class="st1" points="380.5,373.1 380.6,373 380.6,373.2 			"/>
			<polygon class="st1" points="392.7,352 392.8,352.1 392.7,352.1 			"/>
			<polygon class="st1" points="398.8,341.5 398.8,341.5 398.8,341.5 			"/>
			<polygon class="st1" points="271,499.6 271.1,499.5 271.1,499.6 			"/>
			<polygon class="st1" points="283.2,499.4 283.4,499.6 283.2,499.7 			"/>
			<polygon class="st1" points="307.2,499.6 307.8,499.2 307.8,499.9 			"/>
			<polygon class="st1" points="319.5,499.1 320.2,499.6 319.5,500 			"/>
			<polygon class="st1" points="325.3,489 326.1,488.6 326.1,489.5 			"/>
			<polygon class="st1" points="337.8,467.6 338.5,468 337.8,468.4 			"/>
			<polygon class="st1" points="343.6,457.4 344.3,457 344.3,457.8 			"/>
			<polygon class="st1" points="356,436 356.6,436.4 356,436.7 			"/>
			<polygon class="st1" points="361.9,425.8 362.5,425.5 362.5,426.2 			"/>
			<polygon class="st1" points="374.3,404.5 374.8,404.7 374.3,405 			"/>
			<polygon class="st1" points="380.3,394.2 380.7,394 380.7,394.4 			"/>
			<polygon class="st1" points="392.6,373 393,373.1 392.6,373.3 			"/>
			<polygon class="st1" points="398.7,362.6 398.9,362.5 398.9,362.7 			"/>
			<polygon class="st1" points="410.9,341.4 411.1,341.5 410.9,341.6 			"/>
			<polygon class="st1" points="417,331 417.1,330.9 417.1,331 			"/>
			<polygon class="st1" points="337.7,488.5 338.6,489 337.7,489.6 			"/>
			<polygon class="st1" points="343.5,478.5 344.4,478 344.4,479 			"/>
			<polygon class="st1" points="356,456.9 356.8,457.4 356,457.9 			"/>
			<polygon class="st1" points="361.8,446.9 362.6,446.4 362.6,447.4 			"/>
			<polygon class="st1" points="374.2,425.4 375,425.8 374.2,426.3 			"/>
			<polygon class="st1" points="380.1,415.3 380.8,414.9 380.8,415.7 			"/>
			<polygon class="st1" points="392.5,393.9 393.1,394.2 392.5,394.5 			"/>
			<polygon class="st1" points="398.5,383.7 399,383.4 399,384 			"/>
			<polygon class="st1" points="410.9,362.4 411.3,362.6 410.9,362.8 			"/>
			<polygon class="st1" points="416.9,352.1 417.2,351.9 417.2,352.3 			"/>
			<polygon class="st1" points="429.2,330.9 429.4,331 429.2,331.1 			"/>
			<polygon class="st1" points="435.2,320.5 435.4,320.4 435.4,320.5 			"/>
			<polygon class="st1" points="343.3,499.6 344.4,498.9 344.4,500.2 			"/>
			<polygon class="st1" points="355.9,477.9 357,478.5 355.9,479.1 			"/>
			<polygon class="st1" points="361.6,468 362.7,467.4 362.7,468.6 			"/>
			<polygon class="st1" points="374.2,446.3 375.2,446.9 374.2,447.5 			"/>
			<polygon class="st1" points="379.9,436.4 380.9,435.8 380.9,436.9 			"/>
			<polygon class="st1" points="392.5,414.8 393.3,415.3 392.5,415.8 			"/>
			<polygon class="st1" points="398.3,404.7 399.1,404.3 399.1,405.2 			"/>
			<polygon class="st1" points="410.8,383.3 411.4,383.7 410.8,384.1 			"/>
			<polygon class="st1" points="416.7,373.1 417.3,372.8 417.3,373.5 			"/>
			<polygon class="st1" points="429.1,351.8 429.6,352.1 429.1,352.4 			"/>
			<polygon class="st1" points="435.1,341.5 435.5,341.3 435.5,341.8 			"/>
			<polygon class="st1" points="447.4,320.3 447.6,320.5 447.4,320.6 			"/>
			<polygon class="st1" points="453.5,309.9 453.6,309.8 453.6,310 			"/>
			<polygon class="st1" points="355.8,498.8 357.1,499.6 355.8,500.3 			"/>
			<polygon class="st1" points="361.5,489 362.8,488.3 362.8,489.8 			"/>
			<polygon class="st1" points="374.1,467.2 375.3,468 374.1,468.7 			"/>
			<polygon class="st1" points="379.8,457.4 381,456.7 381,458.1 			"/>
			<polygon class="st1" points="392.4,435.7 393.5,436.4 392.4,437 			"/>
			<polygon class="st1" points="398.1,425.8 399.2,425.2 399.2,426.4 			"/>
			<polygon class="st1" points="410.7,404.2 411.6,404.7 410.7,405.3 			"/>
			<polygon class="st1" points="416.5,394.2 417.4,393.7 417.4,394.7 			"/>
			<polygon class="st1" points="429,372.7 429.7,373.1 429,373.6 			"/>
			<polygon class="st1" points="434.9,362.6 435.5,362.2 435.5,363 			"/>
			<polygon class="st1" points="447.3,341.2 447.8,341.5 447.3,341.8 			"/>
			<polygon class="st1" points="453.3,331 453.7,330.8 453.7,331.2 			"/>
			<polygon class="st1" points="374,488.2 375.5,489 374,489.9 			"/>
			<polygon class="st1" points="379.6,478.5 381.1,477.6 381.1,479.4 			"/>
			<polygon class="st1" points="392.3,456.6 393.7,457.4 392.3,458.2 			"/>
			<polygon class="st1" points="397.9,446.9 399.3,446.1 399.3,447.7 			"/>
			<polygon class="st1" points="410.6,425.1 411.8,425.8 410.6,426.5 			"/>
			<polygon class="st1" points="416.3,415.3 417.5,414.6 417.5,415.9 			"/>
			<polygon class="st1" points="428.9,393.6 429.9,394.2 428.9,394.8 			"/>
			<polygon class="st1" points="434.7,383.7 435.6,383.1 435.6,384.2 			"/>
			<polygon class="st1" points="447.2,362.2 448,362.6 447.2,363 			"/>
			<polygon class="st1" points="453.1,352.1 453.8,351.7 453.8,352.5 			"/>
			<polygon class="st1" points="379.5,499.6 381.1,498.6 381.1,500.5 			"/>
			<polygon class="st1" points="392.2,477.5 393.8,478.5 392.2,479.5 			"/>
			<polygon class="st1" points="397.8,468 399.4,467 399.4,468.9 			"/>
			<polygon class="st1" points="410.5,446 412,446.9 410.5,447.8 			"/>
			<polygon class="st1" points="416.1,436.4 417.6,435.5 417.6,437.2 			"/>
			<polygon class="st1" points="428.8,414.5 430.1,415.3 428.8,416 			"/>
			<polygon class="st1" points="434.5,404.7 435.7,404 435.7,405.5 			"/>
			<polygon class="st1" points="447.1,383.1 448.2,383.7 447.1,384.3 			"/>
			<polygon class="st1" points="452.9,373.1 453.9,372.6 453.9,373.7 			"/>
			<polygon class="st1" points="392.1,498.5 394,499.6 392.1,500.6 			"/>
			<polygon class="st1" points="397.6,489 399.4,488 399.4,490.1 			"/>
			<polygon class="st1" points="410.4,466.9 412.2,468 410.4,469 			"/>
			<polygon class="st1" points="415.9,457.4 417.7,456.4 417.7,458.4 			"/>
			<polygon class="st1" points="428.7,435.4 430.3,436.4 428.7,437.3 			"/>
			<polygon class="st1" points="434.3,425.8 435.8,424.9 435.8,426.7 			"/>
			<polygon class="st1" points="447,403.9 448.4,404.7 447,405.5 			"/>
			<polygon class="st1" points="452.7,394.2 454,393.5 454,394.9 			"/>
			<polygon class="st1" points="410.3,487.9 412.3,489 410.3,490.2 			"/>
			<polygon class="st1" points="415.8,478.5 417.7,477.4 417.7,479.6 			"/>
			<polygon class="st1" points="428.6,456.3 430.5,457.4 428.6,458.5 			"/>
			<polygon class="st1" points="434.1,446.9 435.9,445.9 435.9,447.9 			"/>
			<polygon class="st1" points="446.9,424.9 448.6,425.8 446.9,426.8 			"/>
			<polygon class="st1" points="452.5,415.3 454.1,414.4 454.1,416.2 			"/>
			<polygon class="st1" points="415.6,499.6 417.8,498.3 417.8,500.8 			"/>
			<polygon class="st1" points="428.5,477.3 430.7,478.5 428.5,479.7 			"/>
			<polygon class="st1" points="433.9,468 436,466.8 436,469.2 			"/>
			<polygon class="st1" points="446.8,445.8 448.8,446.9 446.8,448 			"/>
			<polygon class="st1" points="452.3,436.4 454.2,435.3 454.2,437.4 			"/>
			<polygon class="st1" points="428.5,498.2 430.8,499.6 428.5,500.9 			"/>
			<polygon class="st1" points="433.8,489 436.1,487.7 436.1,490.4 			"/>
			<polygon class="st1" points="446.7,466.7 449,468 446.7,469.2 			"/>
			<polygon class="st1" points="452.1,457.4 454.3,456.2 454.3,458.7 			"/>
			<polygon class="st1" points="446.7,487.6 449.1,489 446.7,490.4 			"/>
			<polygon class="st1" points="452,478.5 454.4,477.1 454.4,479.9 			"/>
			<polygon class="st1" points="451.8,499.6 454.4,498.1 454.4,501.1 			"/>
		</g>
	</g>
</g>
</svg>
