<?xml version="1.0" encoding="utf-8"?>
<!-- Generator: Adobe Illustrator 23.0.3, SVG Export Plug-In . SVG Version: 6.00 Build 0)  -->
<svg version="1.1" id="Ebene_1" xmlns="http://www.w3.org/2000/svg" xmlns:xlink="http://www.w3.org/1999/xlink" x="0px" y="0px"
	 viewBox="0 0 64.2 61.5" style="enable-background:new 0 0 64.2 61.5;" xml:space="preserve">
<style type="text/css">
	.st0{fill:#FFFFFF;}
</style>
<g>
	<g>
		<path class="st0" d="M62.8,39.2c-0.8-1.3-2-2.3-3.3-2.9c0.4-5.9-1.3-10.9-4.1-11.1l-0.1,0c-0.1-5-1.7-10-4.7-14.2
			C45.8,4.1,38,0,29.8,0C21.6,0,13.8,4.1,9,10.9c-3,4.3-4.6,9.2-4.7,14.2l-0.1,0c-2.8,0.2-4.6,5.3-4.1,11.4c0.5,6.1,3.2,10.8,6,10.5
			h0l9.1-0.8c0.8-0.1,1.5-0.4,2-1c0.5-0.6,0.7-1.3,0.7-2.1L16.3,27c-0.1-1.6-1.5-2.8-3.1-2.6l-2.4,0.2c0.2-3.5,1.4-6.9,3.5-9.9
			c3.7-5.2,9.3-8.2,15.5-8.2c6.2,0,11.8,3,15.5,8.2c2.1,3,3.3,6.4,3.5,9.9l-2.4-0.2c-1.6-0.1-3,1-3.1,2.6l-1.4,16.1
			c-0.1,0.8,0.2,1.5,0.7,2.1c0.5,0.6,1.2,1,2,1l9.1,0.8h0c2,0.2,4-2.3,5.1-6.1c0.2,0.2,0.3,0.4,0.5,0.6c0.8,1.2,0.9,2.6,0.3,3.9
			l-2.9,6.6c-0.9,2-2.9,3.3-5,3.3h-3.9c-0.3-1-1.2-1.8-2.3-1.8h-7.2c-1.4,0-2.5,1.1-2.5,2.5V59c0,1.4,1.1,2.5,2.5,2.5h7.2
			c1.1,0,2-0.8,2.3-1.8h3.9c3.9,0,7.5-2.3,9-5.9l2.9-6.6C64.6,44.6,64.4,41.6,62.8,39.2z"/>
	</g>
</g>
</svg>
