<?xml version="1.0" encoding="utf-8"?>
<!-- Generator: Adobe Illustrator 23.0.3, SVG Export Plug-In . SVG Version: 6.00 Build 0)  -->
<svg version="1.1" id="Ebene_1" xmlns="http://www.w3.org/2000/svg" xmlns:xlink="http://www.w3.org/1999/xlink" x="0px" y="0px"
	 viewBox="0 0 24.1 18.5" style="enable-background:new 0 0 24.1 18.5;" xml:space="preserve">
<style type="text/css">
	.st0{fill:#2F7CB7;}
</style>
<path class="st0" d="M12.1,0C5.4,0,0,5.4,0,12.1c0,2.4,0.7,4.6,1.9,6.4h20.4c1.2-1.9,1.9-4.1,1.9-6.4C24.1,5.4,18.7,0,12.1,0z
	 M12.1,1.3c0.7,0,1.2,0.5,1.2,1.2c0,0.7-0.5,1.2-1.2,1.2s-1.2-0.5-1.2-1.2C10.9,1.8,11.4,1.3,12.1,1.3z M2.7,13
	c-0.7,0-1.2-0.5-1.2-1.2c0-0.7,0.5-1.2,1.2-1.2c0.7,0,1.2,0.5,1.2,1.2C3.9,12.4,3.3,13,2.7,13z M5.4,6.4c-0.7,0-1.2-0.5-1.2-1.2
	S4.8,4,5.4,4c0.7,0,1.2,0.5,1.2,1.2S6.1,6.4,5.4,6.4z M15.4,6.7l-1.9,5.7c0.6,0.5,1,1.2,1,2c0,1.4-1.1,2.6-2.6,2.6
	c-1.4,0-2.6-1.1-2.6-2.6c0-1.4,1.1-2.5,2.5-2.5l1.9-5.7c0.2-0.5,0.6-0.7,1.1-0.5S15.5,6.3,15.4,6.7z M18.7,6.4
	c-0.7,0-1.2-0.5-1.2-1.2S18,4,18.7,4c0.7,0,1.2,0.5,1.2,1.2S19.3,6.4,18.7,6.4z M21.4,13c-0.7,0-1.2-0.5-1.2-1.2
	c0-0.7,0.5-1.2,1.2-1.2c0.7,0,1.2,0.5,1.2,1.2C22.6,12.4,22.1,13,21.4,13z"/>
</svg>
