<?xml version="1.0" encoding="utf-8"?>
<!-- Generator: Adobe Illustrator 23.0.3, SVG Export Plug-In . SVG Version: 6.00 Build 0)  -->
<svg version="1.1" id="Ebene_1" xmlns="http://www.w3.org/2000/svg" xmlns:xlink="http://www.w3.org/1999/xlink" x="0px" y="0px"
	 viewBox="0 0 24.1 18.4" style="enable-background:new 0 0 24.1 18.4;" xml:space="preserve">
<style type="text/css">
	.st0{fill:#555555;}
</style>
<g>
	<g>
		<g>
			<path class="st0" d="M3.7,0C3.7,0,3.7,0,3.7,0C3.5,0,3.2,0.1,3.1,0.3C2.9,0.4,2.8,0.6,2.8,0.9v12.9c0,0.5,0.4,0.9,0.9,0.9
				c2,0,5.4,0.4,7.7,2.8V4c0-0.2,0-0.3-0.1-0.4C9.3,0.5,5.7,0,3.7,0z"/>
			<path class="st0" d="M21.2,13.8V0.9c0-0.2-0.1-0.4-0.3-0.6C20.8,0.1,20.6,0,20.4,0c0,0,0,0,0,0c-2,0-5.7,0.5-7.6,3.5
				c-0.1,0.1-0.1,0.3-0.1,0.4v13.5c2.3-2.4,5.7-2.8,7.7-2.8C20.9,14.6,21.2,14.2,21.2,13.8z"/>
			<path class="st0" d="M23.2,3h-0.6v10.8c0,1.2-1,2.2-2.2,2.2c-1.7,0-4.5,0.3-6.5,2.2c3.4-0.8,7.1-0.3,9.1,0.2
				c0.3,0.1,0.5,0,0.7-0.2c0.2-0.2,0.3-0.4,0.3-0.7V3.8C24.1,3.4,23.7,3,23.2,3z"/>
			<path class="st0" d="M1.5,13.8V3H0.9C0.4,3,0,3.4,0,3.8v13.7c0,0.3,0.1,0.5,0.3,0.7c0.2,0.2,0.5,0.2,0.7,0.2
				c2.1-0.5,5.7-1,9.1-0.2c-2-1.9-4.8-2.2-6.5-2.2C2.5,16,1.5,15,1.5,13.8z"/>
		</g>
	</g>
</g>
</svg>
