<?xml version="1.0" encoding="utf-8"?>
<!-- Generator: Adobe Illustrator 23.0.3, SVG Export Plug-In . SVG Version: 6.00 Build 0)  -->
<svg version="1.1" id="Ebene_1" xmlns="http://www.w3.org/2000/svg" xmlns:xlink="http://www.w3.org/1999/xlink" x="0px" y="0px"
	 viewBox="0 0 19.6 18.6" style="enable-background:new 0 0 19.6 18.6;" xml:space="preserve">
<style type="text/css">
	.st0{fill:#555555;}
</style>
<g>
	<g id="history">
		<path class="st0" d="M10.3,0c-3.4,0-6.5,1.9-8,4.7L0,2.4v6.4h6.4L3.6,6.1C4.9,3.6,7.3,2,10.3,2c4,0,7.3,3.3,7.3,7.3
			s-3.3,7.3-7.3,7.3c-3.2,0-5.9-2.1-7-4.9H1.3c1.1,3.9,4.7,6.9,9,6.9c5.2,0,9.3-4.2,9.3-9.3S15.4,0,10.3,0z M8.8,4.9v5l4.6,2.7
			l0.8-1.3L10.3,9V4.9H8.8z"/>
	</g>
</g>
</svg>
