<?xml version="1.0" encoding="utf-8"?>
<!-- Generator: Adobe Illustrator 23.0.3, SVG Export Plug-In . SVG Version: 6.00 Build 0)  -->
<svg version="1.1" id="Ebene_1" xmlns="http://www.w3.org/2000/svg" xmlns:xlink="http://www.w3.org/1999/xlink" x="0px" y="0px"
	 viewBox="0 0 22.9 18.6" style="enable-background:new 0 0 22.9 18.6;" xml:space="preserve">
<style type="text/css">
	.st0{fill:#555555;}
</style>
<g>
	<g>
		<path class="st0" d="M20,2.9V0H0v15.7c0,0,0,2.9,2.9,2.9h17.9c0,0,2.1,0,2.1-2.9V2.9H20z M2.9,17.2c-1.4,0-1.4-1.4-1.4-1.4V1.4
			h17.2v14.3c0,0.7,0.2,1.1,0.5,1.4H2.9z"/>
		<rect x="2.9" y="4.3" class="st0" width="14.3" height="1.4"/>
		<rect x="10.7" y="12.9" class="st0" width="5" height="1.4"/>
		<rect x="10.7" y="10" class="st0" width="6.4" height="1.4"/>
		<rect x="10.7" y="7.1" class="st0" width="6.4" height="1.4"/>
		<rect x="2.9" y="7.1" class="st0" width="6.4" height="7.1"/>
	</g>
</g>
</svg>
