<?xml version="1.0" encoding="utf-8"?>
<!-- Generator: Adobe Illustrator 23.0.3, SVG Export Plug-In . SVG Version: 6.00 Build 0)  -->
<svg version="1.1" id="Ebene_1" xmlns="http://www.w3.org/2000/svg" xmlns:xlink="http://www.w3.org/1999/xlink" x="0px" y="0px"
	 viewBox="0 0 86.1 61.5" style="enable-background:new 0 0 86.1 61.5;" xml:space="preserve">
<style type="text/css">
	.st0{fill:#FFFFFF;}
</style>
<path class="st0" d="M84.3,1.8c-0.4-0.2-0.8-0.2-1.2-0.2c-0.9,0-1.6,0.3-2.2,0.9L61.5,21.8v-7.9c0-3.8-1.4-7.1-4.1-9.8
	c-2.7-2.7-6-4.1-9.8-4.1H13.8C10,0,6.8,1.4,4.1,4.1C1.4,6.8,0,10,0,13.8v33.8c0,3.8,1.4,7.1,4.1,9.8c2.7,2.7,6,4.1,9.8,4.1h33.8
	c3.8,0,7.1-1.4,9.8-4.1c2.7-2.7,4.1-6,4.1-9.8v-8l19.4,19.4c0.6,0.6,1.3,0.9,2.2,0.9c0.4,0,0.8-0.1,1.2-0.2c1.3-0.5,1.9-1.5,1.9-2.8
	V4.6C86.1,3.3,85.5,2.3,84.3,1.8z M15.2,20.5c-2.9,0-5.2-2.3-5.2-5.2c0-2.9,2.3-5.2,5.2-5.2c2.9,0,5.2,2.3,5.2,5.2
	C20.5,18.1,18.1,20.5,15.2,20.5z M30.2,20.5c-2.9,0-5.2-2.3-5.2-5.2c0-2.9,2.3-5.2,5.2-5.2c2.9,0,5.2,2.3,5.2,5.2
	C35.5,18.1,33.1,20.5,30.2,20.5z"/>
</svg>
