<?xml version="1.0" encoding="utf-8"?>
<!-- Generator: Adobe Illustrator 23.0.3, SVG Export Plug-In . SVG Version: 6.00 Build 0)  -->
<svg version="1.1" id="Ebene_1" xmlns="http://www.w3.org/2000/svg" xmlns:xlink="http://www.w3.org/1999/xlink" x="0px" y="0px"
	 viewBox="0 0 33.8 24.1" style="enable-background:new 0 0 33.8 24.1;" xml:space="preserve">
<style type="text/css">
	.st0{fill:#FFFFFF;}
</style>
<g>
	<path class="st0" d="M21.2,9.3l-0.6-1.5c0,0,1.4-3.3,1.3-3.4L20,2.6c-0.1-0.1-3.4,1.4-3.4,1.4l-1.5-0.6c0,0-1.3-3.3-1.5-3.3h-2.7
		c-0.2,0-1.4,3.3-1.4,3.3L8,3.9c0,0-3.3-1.4-3.5-1.3L2.6,4.5C2.5,4.6,4,7.8,4,7.8L3.4,9.3c0,0-3.4,1.3-3.4,1.5v2.6
		c0,0.2,3.4,1.4,3.4,1.4L4,16.3c0,0-1.4,3.3-1.3,3.4l1.9,1.9C4.7,21.7,8,20.2,8,20.2l1.5,0.6c0,0,1.3,3.3,1.5,3.3h2.7
		c0.2,0,1.4-3.3,1.4-3.3l1.5-0.6c0,0,3.3,1.4,3.5,1.3l1.9-1.9c0.1-0.1-1.4-3.3-1.4-3.3l0.6-1.5c0,0,3.4-1.3,3.4-1.5v-2.6
		C24.6,10.5,21.2,9.3,21.2,9.3z M12.3,15.9c-2.2,0-3.9-1.7-3.9-3.9c0-2.1,1.8-3.9,3.9-3.9c2.2,0,3.9,1.7,3.9,3.9
		C16.3,14.2,14.5,15.9,12.3,15.9z"/>
	<path class="st0" d="M32.6,6.2l0-0.8c0,0,1.3-1.1,1.2-1.2L33.3,3c0-0.1-1.8-0.1-1.8-0.1L31,2.4c0,0,0.1-1.7,0-1.7l-1.2-0.5
		c-0.1,0-1.3,1.2-1.3,1.2l-0.8,0c0,0-1.2-1.3-1.3-1.2l-1.2,0.4c-0.1,0,0,1.7,0,1.7l-0.6,0.5c0,0-1.7-0.1-1.8,0l-0.5,1.2
		c0,0.1,1.2,1.3,1.2,1.3l0,0.8c0,0-1.3,1.2-1.2,1.2l0.5,1.2c0,0.1,1.8,0.1,1.8,0.1L25.1,9c0,0-0.1,1.7,0,1.7l1.2,0.5
		c0.1,0,1.3-1.2,1.3-1.2l0.8,0c0,0,1.2,1.3,1.3,1.2l1.2-0.4c0.1,0,0-1.7,0-1.7l0.6-0.5c0,0,1.7,0.1,1.8,0l0.5-1.2
		C33.8,7.4,32.6,6.2,32.6,6.2z M29.8,6.4c-0.4,0.9-1.5,1.4-2.5,0.9c-1-0.4-1.4-1.5-1-2.5C26.8,4,27.9,3.5,28.9,4
		C29.8,4.4,30.2,5.5,29.8,6.4z"/>
</g>
</svg>
