<?xml version="1.0" encoding="utf-8"?>
<!-- Generator: Adobe Illustrator 23.0.3, SVG Export Plug-In . SVG Version: 6.00 Build 0)  -->
<svg version="1.1" id="Ebene_1" xmlns="http://www.w3.org/2000/svg" xmlns:xlink="http://www.w3.org/1999/xlink" x="0px" y="0px"
	 viewBox="0 0 61.5 61.5" style="enable-background:new 0 0 61.5 61.5;" xml:space="preserve">
<style type="text/css">
	.st0{fill:#FFFFFF;}
</style>
<g>
	<path class="st0" d="M60.9,52L48.7,39.8l8.7-5c0.7-0.4,1.1-1.1,1-1.9c-0.1-0.8-0.6-1.5-1.3-1.8l-39-15.5c-0.8-0.3-1.6-0.1-2.2,0.5
		c-0.6,0.6-0.8,1.5-0.5,2.2l15.5,39c0.3,0.7,1,1.2,1.8,1.3c0.8,0.1,1.5-0.3,1.9-1l5-8.7L52,60.9c0.4,0.4,0.9,0.6,1.5,0.6
		c0.5,0,1.1-0.2,1.5-0.6l6-6C61.7,54.2,61.7,52.8,60.9,52z"/>
	<path class="st0" d="M9,6.1c-0.8-0.8-2.1-0.8-2.9,0C5.3,6.9,5.3,8.2,6.1,9l4.6,4.6c0.4,0.4,0.9,0.6,1.5,0.6c0.5,0,1.1-0.2,1.5-0.6
		c0.8-0.8,0.8-2.1,0-2.9L9,6.1z"/>
	<path class="st0" d="M10.6,20.3c0-1.1-0.9-2.1-2.1-2.1H2.1c-1.1,0-2.1,0.9-2.1,2.1s0.9,2.1,2.1,2.1h6.5
		C9.7,22.4,10.6,21.5,10.6,20.3z"/>
	<path class="st0" d="M9.7,26.7l-4.6,4.6c-0.8,0.8-0.8,2.1,0,2.9c0.4,0.4,0.9,0.6,1.5,0.6s1.1-0.2,1.5-0.6l4.6-4.6
		c0.8-0.8,0.8-2.1,0-2.9C11.9,25.9,10.6,25.9,9.7,26.7z"/>
	<path class="st0" d="M20.3,10.6c1.1,0,2.1-0.9,2.1-2.1V2.1c0-1.1-0.9-2.1-2.1-2.1c-1.1,0-2.1,0.9-2.1,2.1v6.5
		C18.3,9.7,19.2,10.6,20.3,10.6z"/>
	<path class="st0" d="M28.2,13.3c0.5,0,1.1-0.2,1.5-0.6l4.6-4.6C35,7.3,35,6,34.2,5.2c-0.8-0.8-2.1-0.8-2.9,0l-4.6,4.6
		c-0.8,0.8-0.8,2.1,0,2.9C27.1,13.1,27.6,13.3,28.2,13.3z"/>
</g>
</svg>
