<?xml version="1.0" encoding="utf-8"?>
<!-- Generator: Adobe Illustrator 24.3.0, SVG Export Plug-In . SVG Version: 6.00 Build 0)  -->
<svg version="1.1" id="Layer_1" xmlns="http://www.w3.org/2000/svg" xmlns:xlink="http://www.w3.org/1999/xlink" x="0px" y="0px"
	 viewBox="0 0 512 512" style="enable-background:new 0 0 512 512;" xml:space="preserve">
<style type="text/css">
	.st0{fill:#555555;}
</style>
<path class="st0" d="M256,512c-68.4,0-132.7-26.6-181-75C26.6,388.7,0,324.4,0,256S26.6,123.3,75,75C123.3,26.6,187.6,0,256,0
	s132.7,26.6,181,75c48.4,48.4,75,112.6,75,181s-26.6,132.7-75,181C388.7,485.4,324.4,512,256,512L256,512z M256,40
	C136.9,40,40,136.9,40,256s96.9,216,216,216s216-96.9,216-216S375.1,40,256,40z M346.3,347.9c7.8-7.8,7.8-20.5,0-28.3
	c-7.8-7.8-20.5-7.8-28.3,0c-35.1,35.1-92.2,35.1-127.3,0c-17-17-26.4-39.6-26.4-63.6s9.4-46.6,26.4-63.6
	c35.1-35.1,92.2-35.1,127.3,0c7.8,7.8,20.5,7.8,28.3,0s7.8-20.5,0-28.3c-50.7-50.7-133.2-50.7-183.8,0
	c-24.6,24.6-38.1,57.2-38.1,91.9s13.5,67.4,38.1,91.9c25.3,25.3,58.6,38,91.9,38S321,373.3,346.3,347.9z"/>
</svg>
