<?xml version="1.0" encoding="utf-8"?>
<!-- Generator: Adobe Illustrator 23.0.3, SVG Export Plug-In . SVG Version: 6.00 Build 0)  -->
<svg version="1.1" id="Ebene_1" xmlns="http://www.w3.org/2000/svg" xmlns:xlink="http://www.w3.org/1999/xlink" x="0px" y="0px"
	 viewBox="0 0 71.5 62" style="enable-background:new 0 0 71.5 62;" xml:space="preserve">
<style type="text/css">
	.st0{fill:#FFFFFF;}
</style>
<g>
	<path class="st0" d="M69.7,1.8C68.6,0.6,67.2,0,65.5,0H6c-1.6,0-3,0.6-4.2,1.8C0.6,2.9,0,4.3,0,6v40.5c0,1.6,0.6,3,1.7,4.2
		c1.2,1.2,2.6,1.7,4.2,1.7h20.3c0,0.9-0.2,1.9-0.6,2.9c-0.4,1-0.8,1.9-1.2,2.6c-0.4,0.7-0.6,1.3-0.6,1.6c0,0.6,0.2,1.2,0.7,1.7
		c0.5,0.5,1,0.7,1.7,0.7h19.1c0.6,0,1.2-0.2,1.7-0.7c0.5-0.5,0.7-1,0.7-1.7c0-0.3-0.2-0.9-0.6-1.6c-0.4-0.8-0.8-1.6-1.2-2.6
		c-0.4-1-0.6-2-0.6-2.9h20.3c1.6,0,3-0.6,4.2-1.7c1.2-1.2,1.8-2.6,1.8-4.2V6C71.5,4.3,70.9,2.9,69.7,1.8z M66.7,36.9
		c0,0.3-0.1,0.6-0.4,0.8c-0.2,0.2-0.5,0.4-0.8,0.4H6c-0.3,0-0.6-0.1-0.8-0.4c-0.2-0.2-0.4-0.5-0.4-0.8V6c0-0.3,0.1-0.6,0.4-0.8
		C5.4,4.9,5.6,4.8,6,4.8h59.6c0.3,0,0.6,0.1,0.8,0.4c0.2,0.2,0.4,0.5,0.4,0.8V36.9L66.7,36.9z"/>
</g>
</svg>
