<?xml version="1.0" encoding="utf-8"?>
<!-- Generator: Adobe Illustrator 23.0.3, SVG Export Plug-In . SVG Version: 6.00 Build 0)  -->
<svg version="1.1" id="Ebene_1" xmlns="http://www.w3.org/2000/svg" xmlns:xlink="http://www.w3.org/1999/xlink" x="0px" y="0px"
	 viewBox="0 0 65.5 61.5" style="enable-background:new 0 0 65.5 61.5;" xml:space="preserve">
<style type="text/css">
	.st0{fill:#FFFFFF;}
</style>
<g>
	<path class="st0" d="M64.9,45.6l-6.1-6.1c-0.6-0.6-1.4-0.7-2.1-0.4c-0.7,0.3-1.2,1-1.2,1.8v3.9h-5v4.4h5V53c0,0.8,0.5,1.5,1.2,1.8
		c0.7,0.3,1.6,0.1,2.1-0.4l6.1-6.1C65.7,47.6,65.7,46.3,64.9,45.6z"/>
	<path class="st0" d="M6.7,19.1c0.6,0.6,1.4,0.7,2.1,0.4c0.7-0.3,1.2-1,1.2-1.8v-3.9h5.3V9.4H10V5.5C10,4.7,9.5,4,8.8,3.7
		C8.1,3.4,7.2,3.6,6.7,4.1l-6.1,6.1c-0.8,0.8-0.8,2,0,2.8L6.7,19.1z"/>
	<path class="st0" d="M58.9,28V8.7c0-1.4-1.2-2.6-2.6-2.6H36.1c-0.2,0-0.4-0.2-0.4-0.4V2.6c0-1.4-1.2-2.6-2.6-2.6H22.2
		c-1.4,0-2.6,1.2-2.6,2.6v19.8c2.1,1.3,3.5,3.5,3.6,6.1h19.9c1.9,0,3.7,0.8,5,2h8.2C57.8,30.5,58.9,29.4,58.9,28z"/>
	<path class="st0" d="M43.1,32.9H19.3c-0.2,0-0.4-0.2-0.4-0.4v-3.7c0-1.7-1.4-3-3-3H3c-1.7,0-3,1.4-3,3v29.8c0,1.7,1.4,3,3,3h40.1
		c1.7,0,3-1.4,3-3V35.9C46.1,34.3,44.8,32.9,43.1,32.9z"/>
</g>
</svg>
