<?xml version="1.0" encoding="utf-8"?>
<!-- Generator: Adobe Illustrator 24.3.0, SVG Export Plug-In . SVG Version: 6.00 Build 0)  -->
<svg version="1.1" id="Capa_1" xmlns="http://www.w3.org/2000/svg" xmlns:xlink="http://www.w3.org/1999/xlink" x="0px" y="0px"
	 viewBox="0 0 294.8 294.8" style="enable-background:new 0 0 294.8 294.8;" xml:space="preserve">
<style type="text/css">
	.st0{fill:#FFFFFF;}
</style>
<g>
	<path class="st0" d="M133.5,9.5c0-2.8-1.2-5.5-3.4-7.3s-5-2.6-7.8-2.1C99,4.3,77.5,13.9,59.3,27.6c-2.2,1.7-3.6,4.2-3.8,6.9
		c-0.2,2.7,0.8,5.4,2.8,7.4l49,49c3,3,7.6,3.7,11.3,1.6c2.7-1.5,5.6-2.8,8.6-3.9c3.7-1.4,6.2-4.9,6.2-8.9V9.5z"/>
	<path class="st0" d="M163.5,79.7c0,4,2.5,7.5,6.2,8.9c16.9,6.2,30.3,19.6,36.5,36.5c1.4,3.7,4.9,6.2,8.9,6.2h70.2
		c2.8,0,5.5-1.2,7.3-3.4s2.6-5,2.1-7.8c-10.9-61-59-109.2-120-120c-2.8-0.5-5.6,0.3-7.8,2.1s-3.4,4.5-3.4,7.3L163.5,79.7L163.5,79.7
		z"/>
	<path class="st0" d="M215.1,161.3c-4,0-7.5,2.5-8.9,6.2c-8.6,23.5-31.2,40.3-57.7,40.3c-34,0-61.5-27.5-61.5-61.5
		c0-7.6,1.4-14.8,3.9-21.5c1.3-3.5,0.5-7.4-2.2-10.1L38.3,64.4c-2-2-4.9-3-7.7-2.7s-5.4,1.9-7,4.3C8.7,89.1,0,116.7,0,146.3
		c0,82,66.5,148.5,148.5,148.5c73.1,0,133.8-52.8,146.2-122.3c0.5-2.8-0.3-5.6-2.1-7.8c-1.8-2.2-4.5-3.4-7.3-3.4L215.1,161.3
		L215.1,161.3z"/>
</g>
</svg>
