<?xml version="1.0" encoding="utf-8"?>
<!-- Generator: Adobe Illustrator 23.0.3, SVG Export Plug-In . SVG Version: 6.00 Build 0)  -->
<svg version="1.1" id="Ebene_1" xmlns="http://www.w3.org/2000/svg" xmlns:xlink="http://www.w3.org/1999/xlink" x="0px" y="0px"
	 viewBox="0 0 72.3 62" style="enable-background:new 0 0 72.3 62;" xml:space="preserve">
<style type="text/css">
	.st0{fill:#FFFFFF;}
</style>
<g>
	<g id="c43_terminal_1_">
		<path class="st0" d="M67.1,0h-62C2.3,0,0,2.3,0,5.2v51.6C0,59.6,2.3,62,5.2,62h62c2.8,0,5.2-2.3,5.2-5.2V5.2C72.3,2.3,70,0,67.1,0
			z M16.8,3.9c1.4,0,2.6,1.2,2.6,2.6c0,1.4-1.2,2.6-2.6,2.6c-1.4,0-2.6-1.1-2.6-2.6C14.2,5,15.3,3.9,16.8,3.9z M9,3.9
			c1.4,0,2.6,1.2,2.6,2.6C11.6,7.9,10.5,9,9,9S6.4,7.9,6.4,6.5C6.5,5,7.6,3.9,9,3.9z M67.1,56.8h-62V13h62V56.8z"/>
		<polygon class="st0" points="28.9,23.6 12.4,16 12.4,19.6 25.2,25.1 25.2,25.2 12.4,30.7 12.4,34.3 28.9,26.7 		"/>
		<rect x="36.7" y="23.4" class="st0" width="9" height="3.5"/>
	</g>
	<g id="Capa_1_1_">
	</g>
</g>
</svg>
