<?xml version="1.0" encoding="utf-8"?>
<!-- Generator: Adobe Illustrator 23.0.3, SVG Export Plug-In . SVG Version: 6.00 Build 0)  -->
<svg version="1.1" id="Ebene_1" xmlns="http://www.w3.org/2000/svg" xmlns:xlink="http://www.w3.org/1999/xlink" x="0px" y="0px"
	 viewBox="0 0 19.3 18.5" style="enable-background:new 0 0 19.3 18.5;" xml:space="preserve">
<style type="text/css">
	.st0{fill:#555555;}
</style>
<g>
	<g>
		<path class="st0" d="M18.9,11.8c-0.2-0.4-0.6-0.7-1-0.9c0.1-1.8-0.4-3.3-1.2-3.3l0,0c0-1.5-0.5-3-1.4-4.3C13.8,1.2,11.4,0,9,0
			C6.5,0,4.2,1.2,2.7,3.3C1.8,4.6,1.3,6.1,1.3,7.6l0,0C0.4,7.6-0.1,9.2,0,11c0.2,1.8,1,3.2,1.8,3.2h0l2.7-0.2c0.2,0,0.4-0.1,0.6-0.3
			c0.1-0.2,0.2-0.4,0.2-0.6L4.9,8.1c0-0.5-0.5-0.8-0.9-0.8L3.2,7.4c0.1-1,0.4-2.1,1.1-3C5.4,2.9,7.1,2,9,2c1.9,0,3.5,0.9,4.6,2.5
			c0.6,0.9,1,1.9,1.1,3l-0.7-0.1c-0.5,0-0.9,0.3-0.9,0.8L12.6,13c0,0.2,0.1,0.5,0.2,0.6c0.1,0.2,0.4,0.3,0.6,0.3l2.7,0.2h0
			c0.6,0.1,1.2-0.7,1.5-1.8c0.1,0.1,0.1,0.1,0.1,0.2c0.2,0.4,0.3,0.8,0.1,1.2l-0.9,2c-0.3,0.6-0.9,1-1.5,1h-1.2
			c-0.1-0.3-0.4-0.5-0.7-0.5h-2.2c-0.4,0-0.7,0.3-0.7,0.8v0.9c0,0.4,0.3,0.8,0.7,0.8h2.2c0.3,0,0.6-0.2,0.7-0.5h1.2
			c1.2,0,2.2-0.7,2.7-1.8l0.9-2C19.4,13.4,19.3,12.5,18.9,11.8z"/>
	</g>
</g>
</svg>
