<?xml version="1.0" encoding="UTF-8"?><svg id="uuid-afed78cb-e5fc-41c2-8d55-21a7f624a2de" xmlns="http://www.w3.org/2000/svg" viewBox="0 0 48 48"><defs><style>.uuid-290a16cf-92b9-447c-8537-b41dd3e965ac{fill:#47536b;stroke-width:0px;}</style></defs><path class="uuid-290a16cf-92b9-447c-8537-b41dd3e965ac" d="m6,6c-1.66,0-3,1.34-3,3v30c0,1.66,1.34,3,3,3h36c1.66,0,3-1.34,3-3V9c0-1.66-1.34-3-3-3H6ZM0,9C0,5.69,2.69,3,6,3h36c3.31,0,6,2.69,6,6v30c0,3.31-2.69,6-6,6H6c-3.31,0-6-2.69-6-6V9Zm9,.75c1.24,0,2.25,1.01,2.25,2.25s-1.01,2.25-2.25,2.25-2.25-1.01-2.25-2.25,1.01-2.25,2.25-2.25Zm6.75,2.25c0-1.24,1.01-2.25,2.25-2.25s2.25,1.01,2.25,2.25-1.01,2.25-2.25,2.25-2.25-1.01-2.25-2.25Zm11.25-2.25c1.24,0,2.25,1.01,2.25,2.25s-1.01,2.25-2.25,2.25-2.25-1.01-2.25-2.25,1.01-2.25,2.25-2.25Z"/></svg>