<?xml version="1.0" encoding="utf-8"?>
<!-- Generator: Adobe Illustrator 28.0.0, SVG Export Plug-In . SVG Version: 6.00 Build 0)  -->
<svg version="1.1" id="Ebene_1" xmlns="http://www.w3.org/2000/svg" xmlns:xlink="http://www.w3.org/1999/xlink" x="0px" y="0px"
	 viewBox="0 0 709.5 342.1" style="enable-background:new 0 0 709.5 342.1;" xml:space="preserve">
<style type="text/css">
	.st0{fill:#FFFFFF;}
</style>
<path class="st0" d="M344.1,226.8c0-8.9,2.1-15.7,6.4-20.5c4.2-4.8,10.6-7.1,19.1-7.1c8.5,0,14.8,2.4,19.1,7.1
	c4.2,4.8,6.4,11.6,6.4,20.5v3.5h-16.3v-4.5c0-4-0.8-6.8-2.3-8.4c-1.5-1.6-3.6-2.4-6.4-2.4c-2.7,0-4.8,0.8-6.4,2.4
	c-1.5,1.6-2.3,4.4-2.3,8.4c0,3.8,0.8,7.1,2.5,10c1.7,2.9,3.8,5.6,6.3,8.2c2.5,2.6,5.2,5.1,8.1,7.7c2.9,2.6,5.6,5.4,8.1,8.4
	c2.5,3,4.6,6.5,6.3,10.4c1.7,3.9,2.5,8.4,2.5,13.6c0,8.9-2.2,15.7-6.5,20.5c-4.3,4.8-10.7,7.1-19.2,7.1c-8.5,0-14.9-2.4-19.2-7.1
	c-4.3-4.8-6.5-11.6-6.5-20.5v-6.7h16.3v7.8c0,4,0.8,6.7,2.4,8.3c1.6,1.6,3.8,2.4,6.5,2.4c2.7,0,4.9-0.8,6.5-2.4
	c1.6-1.6,2.4-4.3,2.4-8.3c0-3.8-0.8-7.1-2.5-10c-1.7-2.9-3.8-5.6-6.3-8.2c-2.5-2.6-5.2-5.1-8.1-7.7c-2.9-2.6-5.6-5.4-8.1-8.4
	c-2.5-3-4.6-6.5-6.3-10.4C344.9,236.6,344.1,232.1,344.1,226.8"/>
<path class="st0" d="M402.7,226.8c0-8.9,2.1-15.7,6.4-20.5c4.2-4.8,10.6-7.1,19.1-7.1c8.5,0,14.8,2.4,19.1,7.1
	c4.2,4.8,6.4,11.6,6.4,20.5v3.5h-16.3v-4.5c0-4-0.8-6.8-2.3-8.4c-1.5-1.6-3.6-2.4-6.4-2.4c-2.7,0-4.8,0.8-6.4,2.4
	c-1.5,1.6-2.3,4.4-2.3,8.4c0,3.8,0.8,7.1,2.5,10c1.7,2.9,3.8,5.6,6.3,8.2c2.5,2.6,5.2,5.1,8.1,7.7c2.9,2.6,5.6,5.4,8.1,8.4
	c2.5,3,4.6,6.5,6.3,10.4c1.7,3.9,2.5,8.4,2.5,13.6c0,8.9-2.2,15.7-6.5,20.5c-4.3,4.8-10.7,7.1-19.2,7.1c-8.5,0-14.9-2.4-19.2-7.1
	c-4.3-4.8-6.5-11.6-6.5-20.5v-6.7h16.3v7.8c0,4,0.8,6.7,2.4,8.3c1.6,1.6,3.8,2.4,6.5,2.4c2.7,0,4.9-0.8,6.5-2.4
	c1.6-1.6,2.4-4.3,2.4-8.3c0-3.8-0.8-7.1-2.5-10c-1.7-2.9-3.8-5.6-6.3-8.2c-2.5-2.6-5.2-5.1-8.1-7.7c-2.9-2.6-5.6-5.4-8.1-8.4
	c-2.5-3-4.6-6.5-6.3-10.4C403.6,236.6,402.7,232.1,402.7,226.8"/>
<polygon class="st0" points="463.6,200.5 480.8,200.5 480.8,294.6 509.2,294.6 509.2,310.3 463.6,310.3 "/>
<path class="st0" d="M372.3,61.3c9,0,15.5,2.1,19.5,6.3c4,4.2,6,10.5,6,19v3.9c0,5.6-0.9,10.3-2.7,14c-1.8,3.7-4.6,6.4-8.5,8.2
	c4.7,1.8,8,4.7,10,8.7c1.9,4,2.9,9,2.9,14.8v8.9c0,8.5-2.2,14.9-6.6,19.4c-4.4,4.4-10.9,6.7-19.6,6.7h-27.1V61.3H372.3z M363.5,77
	v29h6.7c3.2,0,5.8-0.8,7.6-2.5c1.8-1.7,2.7-4.7,2.7-9.1v-6.1c0-4-0.7-6.8-2.1-8.6c-1.4-1.8-3.6-2.7-6.7-2.7H363.5z M363.5,121.7
	v33.7h9.9c2.9,0,5.1-0.8,6.7-2.4c1.5-1.6,2.3-4.4,2.3-8.5V135c0-5.1-0.9-8.6-2.6-10.5c-1.7-1.9-4.6-2.8-8.5-2.8H363.5z"/>
<polygon class="st0" points="427.2,107.5 450.9,107.5 450.9,123.2 427.2,123.2 427.2,155.4 457,155.4 457,171.1 409.9,171.1 
	409.9,61.3 457,61.3 457,77 427.2,77 "/>
<polygon class="st0" points="483.8,134.7 462,61.3 480,61.3 493.2,111.3 506.4,61.3 522.9,61.3 501.1,134.7 501.1,171.1 
	483.8,171.1 "/>
<path class="st0" d="M526,87.6c0-8.9,2.2-15.7,6.7-20.5c4.5-4.8,11-7.1,19.5-7.1c8.5,0,15,2.4,19.4,7.1c4.5,4.8,6.7,11.6,6.7,20.5
	v57.1c0,8.9-2.2,15.7-6.7,20.5c-4.5,4.8-11,7.1-19.4,7.1c-8.5,0-15-2.4-19.5-7.1c-4.5-4.8-6.7-11.6-6.7-20.5V87.6z M543.3,145.8
	c0,4,0.8,6.8,2.4,8.4c1.6,1.6,3.8,2.4,6.5,2.4c2.7,0,4.9-0.8,6.5-2.4c1.6-1.6,2.4-4.4,2.4-8.4V86.5c0-4-0.8-6.8-2.4-8.4
	c-1.6-1.6-3.8-2.4-6.5-2.4c-2.7,0-4.9,0.8-6.5,2.4c-1.6,1.6-2.4,4.4-2.4,8.4V145.8z"/>
<polygon class="st0" points="604.9,91.5 604.9,171.1 589.4,171.1 589.4,61.3 611,61.3 628.7,127 628.7,61.3 644.1,61.3 644.1,171.1 
	626.4,171.1 "/>
<path class="st0" d="M656.5,61.3h27.3c8.7,0,15.1,2.3,19.4,6.9c4.2,4.6,6.4,11.3,6.4,20.2v55.5c0,8.9-2.1,15.6-6.4,20.2
	c-4.2,4.6-10.7,6.9-19.4,6.9h-27.3V61.3z M673.8,77v78.4h9.7c2.7,0,4.9-0.8,6.4-2.4c1.6-1.6,2.4-4.3,2.4-8.3V87.6
	c0-4-0.8-6.7-2.4-8.3c-1.6-1.6-3.7-2.4-6.4-2.4H673.8z"/>
<path class="st0" d="M152.2,94.8c-19.8,0-35.9,18.1-35.9,40.4h71.7C188.1,113,172,94.8,152.2,94.8"/>
<path class="st0" d="M152.2,0c0,0-87.9,54.9-152.2,58.1c1.6,72.2,39.2,238.6,152.2,284.1c113-45.5,150.7-211.9,152.2-284.1
	C240.1,54.9,152.2,0,152.2,0 M207.9,224.4H96.5c-4.6,0-8.4-3.8-8.4-8.4v-72.3c0-4.6,3.8-8.4,8.4-8.4h5.1c0-30.4,22.7-55.1,50.6-55.1
	s50.6,24.7,50.6,55.1h5.1c4.6,0,8.4,3.8,8.4,8.4V216C216.3,220.6,212.6,224.4,207.9,224.4"/>
</svg>
