<?xml version="1.0" encoding="utf-8"?>
<!-- Generator: Adobe Illustrator 28.3.0, SVG Export Plug-In . SVG Version: 6.00 Build 0)  -->
<svg version="1.1" id="Ebene_1" xmlns="http://www.w3.org/2000/svg" xmlns:xlink="http://www.w3.org/1999/xlink" x="0px" y="0px"
	 viewBox="0 0 794.4 383.1" style="enable-background:new 0 0 794.4 383.1;" xml:space="preserve">
<style type="text/css">
	.st0{fill:#0075BF;}
	.st1{fill:#47536B;}
</style>
<g>
	<path class="st0" d="M385.2,254c0-9.9,2.4-17.6,7.1-22.9c4.7-5.3,11.9-8,21.3-8c9.5,0,16.6,2.7,21.3,8c4.7,5.3,7.1,13,7.1,22.9v3.9
		h-18.3v-5.1c0-4.4-0.9-7.6-2.5-9.4c-1.7-1.8-4.1-2.7-7.1-2.7c-3,0-5.4,0.9-7.1,2.7c-1.7,1.8-2.5,4.9-2.5,9.4
		c0,4.2,0.9,7.9,2.8,11.2c1.9,3.2,4.2,6.3,7,9.1c2.8,2.9,5.8,5.7,9,8.6c3.2,2.9,6.2,6,9,9.4c2.8,3.4,5.2,7.3,7,11.6
		c1.9,4.3,2.8,9.4,2.8,15.3c0,10-2.4,17.6-7.3,22.9c-4.9,5.3-12,8-21.5,8c-9.5,0-16.7-2.7-21.5-8c-4.9-5.3-7.3-13-7.3-22.9v-7.6
		h18.3v8.8c0,4.5,0.9,7.6,2.7,9.3c1.8,1.8,4.2,2.6,7.3,2.6c3,0,5.5-0.9,7.3-2.6c1.8-1.8,2.7-4.9,2.7-9.3c0-4.2-0.9-7.9-2.8-11.2
		c-1.9-3.2-4.2-6.3-7-9.1c-2.8-2.9-5.8-5.7-9-8.6c-3.2-2.9-6.2-6-9-9.4c-2.8-3.4-5.2-7.3-7-11.6C386.1,264.9,385.2,259.8,385.2,254"
		/>
	<path class="st0" d="M450.9,254c0-9.9,2.4-17.6,7.1-22.9c4.7-5.3,11.9-8,21.3-8c9.5,0,16.6,2.7,21.3,8c4.7,5.3,7.1,13,7.1,22.9v3.9
		h-18.3v-5.1c0-4.4-0.9-7.6-2.5-9.4c-1.7-1.8-4.1-2.7-7.1-2.7c-3,0-5.4,0.9-7.1,2.7c-1.7,1.8-2.5,4.9-2.5,9.4
		c0,4.2,0.9,7.9,2.8,11.2c1.9,3.2,4.2,6.3,7,9.1c2.8,2.9,5.8,5.7,9,8.6c3.2,2.9,6.2,6,9,9.4c2.8,3.4,5.2,7.3,7,11.6
		c1.9,4.3,2.8,9.4,2.8,15.3c0,10-2.4,17.6-7.3,22.9c-4.9,5.3-12,8-21.5,8c-9.5,0-16.7-2.7-21.5-8c-4.9-5.3-7.3-13-7.3-22.9v-7.6
		h18.3v8.8c0,4.5,0.9,7.6,2.7,9.3c1.8,1.8,4.2,2.6,7.3,2.6c3,0,5.5-0.9,7.3-2.6c1.8-1.8,2.7-4.9,2.7-9.3c0-4.2-0.9-7.9-2.8-11.2
		c-1.9-3.2-4.2-6.3-7-9.1c-2.8-2.9-5.8-5.7-9-8.6c-3.2-2.9-6.2-6-9-9.4c-2.8-3.4-5.2-7.3-7-11.6C451.8,264.9,450.9,259.8,450.9,254"
		/>
	<polygon class="st0" points="519,224.5 538.3,224.5 538.3,329.8 570.1,329.8 570.1,347.4 519,347.4 	"/>
	<path class="st1" d="M416.8,68.6c10.1,0,17.4,2.3,21.9,7c4.5,4.7,6.8,11.8,6.8,21.2v4.4c0,6.3-1,11.5-3,15.6
		c-2,4.1-5.2,7.1-9.5,9.1c5.3,2,9,5.2,11.2,9.7c2.2,4.5,3.2,10,3.2,16.6v10c0,9.5-2.5,16.7-7.4,21.7c-4.9,5-12.2,7.5-22,7.5h-30.4
		V68.6H416.8z M407,86.2v32.5h7.6c3.6,0,6.5-0.9,8.5-2.8c2-1.9,3.1-5.3,3.1-10.2v-6.8c0-4.4-0.8-7.7-2.4-9.7c-1.6-2-4.1-3-7.5-3H407
		z M407,136.2V174H418c3.3,0,5.8-0.9,7.5-2.6c1.7-1.8,2.5-4.9,2.5-9.5v-10.7c0-5.7-1-9.7-2.9-11.8c-1.9-2.1-5.1-3.2-9.6-3.2H407z"/>
	<polygon class="st1" points="478.3,120.4 504.8,120.4 504.8,138 478.3,138 478.3,174 511.6,174 511.6,191.5 459,191.5 459,68.6 
		511.6,68.6 511.6,86.2 478.3,86.2 	"/>
	<polygon class="st1" points="541.7,150.8 517.3,68.6 537.5,68.6 552.2,124.6 567,68.6 585.4,68.6 561,150.8 561,191.5 541.7,191.5 
			"/>
	<path class="st1" d="M588.9,98.1c0-9.9,2.5-17.6,7.5-22.9c5-5.3,12.3-8,21.8-8c9.5,0,16.7,2.7,21.8,8c5,5.3,7.6,13,7.6,22.9V162
		c0,10-2.5,17.6-7.6,22.9c-5,5.3-12.3,8-21.8,8c-9.5,0-16.7-2.7-21.8-8c-5-5.3-7.5-13-7.5-22.9V98.1z M608.2,163.3
		c0,4.5,0.9,7.6,2.7,9.4c1.8,1.8,4.2,2.7,7.3,2.7c3,0,5.5-0.9,7.3-2.7c1.8-1.8,2.7-4.9,2.7-9.4V96.9c0-4.4-0.9-7.6-2.7-9.4
		c-1.8-1.8-4.2-2.7-7.3-2.7c-3,0-5.5,0.9-7.3,2.7c-1.8,1.8-2.7,4.9-2.7,9.4V163.3z"/>
	<polygon class="st1" points="677.3,102.5 677.3,191.5 659.9,191.5 659.9,68.6 684.1,68.6 703.9,142.2 703.9,68.6 721.2,68.6 
		721.2,191.5 701.3,191.5 	"/>
	<path class="st1" d="M735,68.6h30.6c9.7,0,16.9,2.6,21.7,7.7c4.7,5.2,7.1,12.7,7.1,22.7v62.2c0,10-2.4,17.5-7.1,22.7
		c-4.7,5.2-12,7.7-21.7,7.7H735V68.6z M754.3,86.2V174h10.9c3,0,5.4-0.9,7.2-2.6c1.8-1.8,2.6-4.9,2.6-9.3V98.1
		c0-4.4-0.9-7.6-2.6-9.3c-1.8-1.8-4.2-2.6-7.2-2.6H754.3z"/>
	<path class="st0" d="M170.4,106.2c-22.1,0-40.2,20.3-40.2,45.3h80.3C210.6,126.5,192.6,106.2,170.4,106.2"/>
	<path class="st0" d="M170.4,0C170.4,0,72,61.5,0,65c1.8,80.8,43.9,267.1,170.4,318c126.5-51,168.7-237.2,170.4-318
		C268.8,61.5,170.4,0,170.4,0 M232.8,251.3H108.1c-5.2,0-9.4-4.2-9.4-9.4v-81c0-5.2,4.2-9.4,9.4-9.4h5.8c0-34,25.4-61.7,56.6-61.7
		s56.6,27.7,56.6,61.7h5.8c5.2,0,9.4,4.2,9.4,9.4v81C242.2,247,238,251.3,232.8,251.3"/>
</g>
</svg>
