<?xml version="1.0" encoding="utf-8"?>
<!-- Generator: Adobe Illustrator 28.0.0, SVG Export Plug-In . SVG Version: 6.00 Build 0)  -->
<svg version="1.1" id="Ebene_1" xmlns="http://www.w3.org/2000/svg" xmlns:xlink="http://www.w3.org/1999/xlink" x="0px" y="0px"
	 viewBox="0 0 16 14" style="enable-background:new 0 0 16 14;" xml:space="preserve">
<style type="text/css">
	.st0{fill:#47536B;}
</style>
<path class="st0" d="M10,7.1C10,7,10,7,10,7.1C10,7,10,7,10,6.9L5.9,3.1C5.8,3,5.8,3,5.7,3C5.6,3,5.5,3.1,5.5,3.2V5
	c0,0.3-0.2,0.5-0.5,0.5H1.2C1.1,5.5,1,5.6,1,5.8v2.5c0,0.1,0.1,0.2,0.2,0.2H5c0.3,0,0.5,0.2,0.5,0.5v1.8c0,0.1,0.1,0.2,0.2,0.2
	c0.1,0,0.1,0,0.1-0.1L10,7.1z M11,7c0,0.3-0.1,0.6-0.3,0.8l-4.1,3.9C6.3,11.9,6,12,5.7,12c-0.7,0-1.2-0.5-1.2-1.2V9.5H1.2
	C0.6,9.5,0,8.9,0,8.2V5.8c0-0.7,0.6-1.2,1.2-1.2h3.2V3.2C4.5,2.5,5,2,5.7,2C6,2,6.3,2.1,6.5,2.3l4.1,3.9C10.9,6.4,11,6.7,11,7z
	 M10.5,13h3c0.8,0,1.5-0.7,1.5-1.5v-9C15,1.7,14.3,1,13.5,1h-3C10.2,1,10,0.8,10,0.5S10.2,0,10.5,0h3C14.9,0,16,1.1,16,2.5v9
	c0,1.4-1.1,2.5-2.5,2.5h-3c-0.3,0-0.5-0.2-0.5-0.5S10.2,13,10.5,13z"/>
</svg>
