<?xml version="1.0" encoding="UTF-8"?><svg id="uuid-9efbdd62-108d-453b-8316-c76a18f5ee82" xmlns="http://www.w3.org/2000/svg" viewBox="0 0 48 48"><defs><style>.uuid-dd8f2fa0-2e91-4664-98f9-b060bd466c45{fill:#47536b;stroke-width:0px;}</style></defs><path class="uuid-dd8f2fa0-2e91-4664-98f9-b060bd466c45" d="m6,4.8C2.68,4.8,0,7.48,0,10.8v26.4c0,3.32,2.68,6,6,6h36c3.32,0,6-2.68,6-6V10.8c0-3.32-2.68-6-6-6H6Zm-3.6,6c0-1.99,1.61-3.6,3.6-3.6h36c1.99,0,3.6,1.61,3.6,3.6v26.4c0,1.99-1.61,3.6-3.6,3.6H6c-1.99,0-3.6-1.61-3.6-3.6V10.8Zm19.2,8.4c0-1.33,1.07-2.4,2.4-2.4s2.4,1.07,2.4,2.4-1.07,2.4-2.4,2.4-2.4-1.07-2.4-2.4Zm7.2,0c0-2.65-2.15-4.8-4.8-4.8s-4.8,2.15-4.8,4.8,2.15,4.8,4.8,4.8,4.8-2.15,4.8-4.8Zm-1.8,9.6c1.45,0,2.66,1.03,2.94,2.4h-11.88c.28-1.37,1.49-2.4,2.94-2.4h6Zm-6-2.4c-2.99,0-5.4,2.42-5.4,5.4,0,1,.8,1.8,1.8,1.8h13.2c1,0,1.8-.8,1.8-1.8,0-2.98-2.42-5.4-5.4-5.4h-6Zm-9.01-8.4c0-.66.54-1.2,1.2-1.2s1.2.54,1.2,1.2-.54,1.2-1.2,1.2-1.2-.54-1.2-1.2Zm4.8,0c0-1.99-1.61-3.6-3.6-3.6s-3.6,1.61-3.6,3.6,1.61,3.6,3.6,3.6,3.6-1.61,3.6-3.6Zm-7.19,10.2c0-1,.8-1.8,1.8-1.8h4.2c.66,0,1.2-.54,1.2-1.2s-.54-1.2-1.2-1.2h-4.2c-2.32,0-4.2,1.88-4.2,4.2v.6c0,.66.54,1.2,1.2,1.2s1.2-.54,1.2-1.2v-.6Zm25.22-11.4c.66,0,1.2.54,1.2,1.2s-.54,1.2-1.2,1.2-1.2-.54-1.2-1.2.54-1.2,1.2-1.2Zm0,4.8c1.99,0,3.6-1.61,3.6-3.6s-1.61-3.6-3.6-3.6-3.6,1.61-3.6,3.6,1.61,3.6,3.6,3.6Zm1.78,4.8c1,0,1.8.8,1.8,1.8v.6c0,.66.54,1.2,1.2,1.2s1.2-.54,1.2-1.2v-.6c0-2.32-1.88-4.2-4.2-4.2h-4.2c-.66,0-1.2.54-1.2,1.2s.54,1.2,1.2,1.2h4.2Z"/></svg>