<?xml version="1.0" encoding="UTF-8"?><svg id="uuid-6cff5090-2399-4aab-a74e-3cd1dbdb6cc3" xmlns="http://www.w3.org/2000/svg" viewBox="0 0 48 48"><defs><style>.uuid-64f6c62b-d5e6-4764-9705-5c39f4cdb06d{fill:#47536b;stroke-width:0px;}</style></defs><path class="uuid-64f6c62b-d5e6-4764-9705-5c39f4cdb06d" d="m42.67,5.33H5.33c-1.48,0-2.67,1.19-2.67,2.67v16h42.67V8c0-1.48-1.19-2.67-2.67-2.67Zm5.33,18.67v8c0,2.94-2.39,5.33-5.33,5.33h-12.43l.89,5.33h4.87c.73,0,1.33.6,1.33,1.33s-.6,1.33-1.33,1.33H12c-.73,0-1.33-.6-1.33-1.33s.6-1.33,1.33-1.33h4.87l.89-5.33H5.33c-2.94,0-5.33-2.39-5.33-5.33V8C0,5.06,2.39,2.67,5.33,2.67h37.33c2.94,0,5.33,2.39,5.33,5.33v16ZM2.67,26.67v5.33c0,1.48,1.19,2.67,2.67,2.67h37.33c1.48,0,2.67-1.19,2.67-2.67v-5.33H2.67Zm16.91,16h8.85l-.89-5.33h-7.07l-.89,5.33h0Z"/></svg>