<?xml version="1.0" encoding="UTF-8"?><svg id="uuid-603c9c97-9f65-495b-8653-6a99d4e04446" xmlns="http://www.w3.org/2000/svg" viewBox="0 0 48 48"><defs><style>.uuid-7cbfcf2f-1242-4404-9e29-86021d2d5879{fill:#47536b;stroke-width:0px;}</style></defs><path class="uuid-7cbfcf2f-1242-4404-9e29-86021d2d5879" d="m5.14,3.43c-.94,0-1.71.77-1.71,1.71v17.14c0,.94.77,1.71,1.71,1.71h10.29c.94,0,1.71-.77,1.71-1.71V5.14c0-.94-.77-1.71-1.71-1.71H5.14ZM0,5.14C0,2.3,2.3,0,5.14,0h10.29c2.84,0,5.14,2.3,5.14,5.14v17.14c0,2.84-2.3,5.14-5.14,5.14H5.14c-2.84,0-5.14-2.3-5.14-5.14V5.14Zm32.57,18.86c-.94,0-1.71.77-1.71,1.71v17.14c0,.94.77,1.71,1.71,1.71h10.29c.94,0,1.71-.77,1.71-1.71v-17.14c0-.94-.77-1.71-1.71-1.71h-10.29Zm-5.14,1.71c0-2.84,2.3-5.14,5.14-5.14h10.29c2.84,0,5.14,2.3,5.14,5.14v17.14c0,2.84-2.3,5.14-5.14,5.14h-10.29c-2.84,0-5.14-2.3-5.14-5.14v-17.14Zm-12,8.57H5.14c-.94,0-1.71.77-1.71,1.71v6.86c0,.94.77,1.71,1.71,1.71h10.29c.94,0,1.71-.77,1.71-1.71v-6.86c0-.94-.77-1.71-1.71-1.71Zm-10.29-3.43h10.29c2.84,0,5.14,2.3,5.14,5.14v6.86c0,2.84-2.3,5.14-5.14,5.14H5.14c-2.84,0-5.14-2.3-5.14-5.14v-6.86c0-2.84,2.3-5.14,5.14-5.14ZM32.57,3.43c-.94,0-1.71.77-1.71,1.71v6.86c0,.94.77,1.71,1.71,1.71h10.29c.94,0,1.71-.77,1.71-1.71v-6.86c0-.94-.77-1.71-1.71-1.71h-10.29Zm-5.14,1.71c0-2.84,2.3-5.14,5.14-5.14h10.29c2.84,0,5.14,2.3,5.14,5.14v6.86c0,2.84-2.3,5.14-5.14,5.14h-10.29c-2.84,0-5.14-2.3-5.14-5.14v-6.86Z"/></svg>