<?xml version="1.0" encoding="UTF-8"?><svg id="uuid-eb6efd3c-3eda-4f49-ab52-789b664462fc" xmlns="http://www.w3.org/2000/svg" viewBox="0 0 48 48"><defs><style>.uuid-52408fd1-ed59-4877-b909-7ee2e0eb78a5{fill:#47536b;stroke-width:0px;}</style></defs><path class="uuid-52408fd1-ed59-4877-b909-7ee2e0eb78a5" d="m42.67,5.33c1.48,0,2.67,1.19,2.67,2.67v2.67h-24v-5.33h21.33Zm-29.33,0h5.33v5.33h-8v-2.67c0-1.48,1.19-2.67,2.67-2.67Zm-2.67,26.67V13.33h34.67v18.67c0,1.48-1.19,2.67-2.67,2.67H13.33c-1.47,0-2.67-1.19-2.67-2.67ZM13.33,2.67c-2.94,0-5.33,2.39-5.33,5.33v24c0,2.94,2.39,5.33,5.33,5.33h29.33c2.94,0,5.33-2.39,5.33-5.33V8c0-2.94-2.39-5.33-5.33-5.33H13.33ZM2.67,12c0-.73-.6-1.33-1.33-1.33s-1.33.6-1.33,1.33v22.67c0,5.89,4.77,10.67,10.67,10.67h28c.73,0,1.33-.6,1.33-1.33s-.6-1.33-1.33-1.33H10.67c-4.42,0-8-3.58-8-8V12Z"/></svg>