<?xml version="1.0" encoding="UTF-8"?><svg id="uuid-45a09020-45c3-4a0c-af56-84d1eaa8051c" xmlns="http://www.w3.org/2000/svg" viewBox="0 0 48 48"><defs><style>.uuid-82019e87-9670-4ebb-b7eb-bfd6ac431ed9{fill:#47536b;stroke-width:0px;}</style></defs><path class="uuid-82019e87-9670-4ebb-b7eb-bfd6ac431ed9" d="m6.86,42.21V2.49C6.86,1.11,7.97,0,9.35,0,9.96,0,10.55.22,11,.63l29.35,26.09c.5.45.79,1.09.79,1.77,0,1.31-1.06,2.37-2.37,2.37h-14.61l6.55,14.73c.39.87,0,1.87-.87,2.26s-1.87,0-2.26-.87l-6.53-14.7-10.05,11.47c-.45.51-1.09.8-1.78.8-1.31,0-2.36-1.06-2.36-2.36ZM10.29,4.28v35.14l9.26-10.8c.65-.76,1.61-1.2,2.6-1.2h13.85L10.29,4.28Z"/></svg>