<?xml version="1.0" standalone="no"?>
<!DOCTYPE svg PUBLIC "-//W3C//DTD SVG 20010904//EN"
 "http://www.w3.org/TR/2001/REC-SVG-20010904/DTD/svg10.dtd">
<svg version="1.0" xmlns="http://www.w3.org/2000/svg"
 width="700.000000pt" height="700.000000pt" viewBox="0 0 700.000000 700.000000"
 preserveAspectRatio="xMidYMid meet">
<metadata>
Created by potrace 1.14, written by Peter Selinger 2001-2017
</metadata>
<g transform="translate(0.000000,700.000000) scale(0.100000,-0.100000)"
fill="#000000" stroke="none">
<path d="M3413 6985 c-153 -42 -322 -134 -398 -218 -85 -92 -225 -309 -310
-479 -133 -266 -297 -828 -421 -1440 l-6 -28 1201 0 1201 0 -5 38 c-2 20 -10
80 -16 132 -47 410 -145 737 -358 1198 -189 412 -287 555 -460 671 -104 69
-178 105 -257 126 -70 18 -103 18 -171 0z"/>
<path d="M2473 6826 c-279 -82 -634 -242 -858 -385 -590 -380 -1027 -889
-1306 -1523 -21 -49 -39 -91 -39 -93 0 -3 352 -5 783 -5 l783 0 23 134 c112
676 381 1385 683 1807 71 99 72 99 56 98 -7 0 -63 -15 -125 -33z"/>
<path d="M4463 6814 c166 -219 356 -616 473 -991 85 -273 180 -682 214 -920
l12 -83 784 0 c431 0 784 2 784 5 0 10 -82 189 -133 291 -401 796 -1145 1430
-1992 1697 -60 19 -125 38 -144 42 l-35 7 37 -48z"/>
<path d="M116 4317 c-112 -385 -148 -908 -85 -1230 l12 -58 30 37 c33 39 116
84 157 84 20 0 1287 367 1471 426 l46 15 6 277 c4 159 13 324 22 387 8 61 15
111 15 113 0 1 -373 2 -829 2 l-830 0 -15 -53z"/>
<path d="M2230 4368 c0 -2 -7 -52 -15 -113 -9 -60 -18 -206 -22 -323 l-6 -212
29 10 c165 55 1001 302 1051 311 40 7 101 9 151 5 336 -26 610 -304 630 -638
6 -114 -3 -157 -104 -484 -46 -150 -84 -278 -84 -284 0 -7 144 -10 454 -10
l454 0 11 93 c42 336 42 1218 0 1555 l-11 92 -1269 0 c-698 0 -1269 -1 -1269
-2z"/>
<path d="M5213 4342 c26 -131 32 -280 32 -842 0 -562 -6 -711 -32 -842 l-5
-28 830 0 831 0 15 53 c150 516 150 1118 0 1634 l-15 53 -831 0 -830 0 5 -28z"/>
<path d="M1957 3206 c-769 -217 -1420 -402 -1447 -411 -147 -49 -189 -249 -73
-357 15 -14 215 -119 443 -233 228 -113 419 -213 425 -221 8 -11 -127 -151
-626 -652 -350 -350 -646 -651 -658 -669 -20 -29 -21 -43 -21 -225 l0 -195 38
-54 c21 -30 66 -75 100 -101 130 -99 292 -115 435 -45 66 33 140 99 733 650
l659 615 24 -22 c13 -11 115 -204 227 -428 224 -447 237 -467 331 -494 45 -13
62 -14 105 -4 77 19 120 67 152 172 97 322 820 2763 829 2801 30 130 -70 249
-219 262 -55 5 -164 -24 -1457 -389z"/>
<path d="M3715 2168 c-2 -7 -130 -443 -285 -968 -154 -525 -289 -972 -299
-992 l-19 -37 62 -40 c119 -77 252 -131 326 -131 125 0 353 123 455 247 172
206 341 521 429 798 115 361 194 655 256 953 l38 182 -479 0 c-375 0 -481 -3
-484 -12z"/>
<path d="M5116 2153 c-3 -16 -10 -59 -16 -97 -36 -234 -129 -622 -205 -856
-122 -377 -308 -772 -472 -1003 -19 -27 -32 -51 -29 -54 8 -8 219 55 366 109
857 316 1556 977 1929 1826 23 51 41 95 41 97 0 3 -362 5 -804 5 l-804 0 -6
-27z"/>
</g>
</svg>
