<?xml version="1.0" encoding="UTF-8"?><svg id="uuid-7c7a183e-92f8-4bd0-8f8c-f4a09db2a50c" xmlns="http://www.w3.org/2000/svg" viewBox="0 0 48 48"><defs><style>.uuid-760083de-8200-4b87-8c47-ca6253e58512{fill:#47536b;stroke-width:0px;}</style></defs><path class="uuid-760083de-8200-4b87-8c47-ca6253e58512" d="m6,6c-1.66,0-3,1.34-3,3v6c0,1.66,1.34,3,3,3h36c1.66,0,3-1.34,3-3v-6c0-1.66-1.34-3-3-3H6ZM0,9C0,5.69,2.69,3,6,3h36c3.31,0,6,2.69,6,6v6c0,3.31-2.69,6-6,6H6c-3.31,0-6-2.69-6-6v-6Zm6,21c-1.66,0-3,1.34-3,3v6c0,1.66,1.34,3,3,3h36c1.66,0,3-1.34,3-3v-6c0-1.66-1.34-3-3-3H6Zm-6,3c0-3.31,2.69-6,6-6h36c3.31,0,6,2.69,6,6v6c0,3.31-2.69,6-6,6H6c-3.31,0-6-2.69-6-6v-6Zm28.5,3c0-1.24,1.01-2.25,2.25-2.25s2.25,1.01,2.25,2.25-1.01,2.25-2.25,2.25-2.25-1.01-2.25-2.25Zm2.25-26.25c1.24,0,2.25,1.01,2.25,2.25s-1.01,2.25-2.25,2.25-2.25-1.01-2.25-2.25,1.01-2.25,2.25-2.25Zm5.25,26.25c0-1.24,1.01-2.25,2.25-2.25s2.25,1.01,2.25,2.25-1.01,2.25-2.25,2.25-2.25-1.01-2.25-2.25Zm2.25-26.25c1.24,0,2.25,1.01,2.25,2.25s-1.01,2.25-2.25,2.25-2.25-1.01-2.25-2.25,1.01-2.25,2.25-2.25Z"/></svg>