<?xml version="1.0" encoding="utf-8"?>
<svg version="1.1" id="Ebene_1" xmlns="http://www.w3.org/2000/svg" xmlns:xlink="http://www.w3.org/1999/xlink" x="0px" y="0px"
	 viewBox="0 0 482.6 511.9" style="enable-background:new 0 0 482.6 511.9;" xml:space="preserve">
<style type="text/css">
	.st0{fill:#FFFFFF;}
</style>
<path class="st0" d="M481.2,166.6c3.2,8.7,0.5,18.4-6.4,24.6l-43.3,39.4c1.1,8.3,1.7,16.8,1.7,25.4c0,8.6-0.6,17.1-1.7,25.4
	l43.3,39.4c6.9,6.2,9.6,15.9,6.4,24.6c-4.4,11.9-9.7,23.3-15.8,34.3l-4.7,8.1c-6.6,11-14,21.4-22.1,31.2c-5.9,7.2-15.7,9.6-24.5,6.8
	l-55.7-17.7c-13.4,10.3-28.2,18.9-44,25.4l-12.5,57.1c-2,9.1-9,16.3-18.2,17.8c-13.8,2.3-28,3.5-42.5,3.5s-28.7-1.2-42.5-3.5
	c-9.2-1.5-16.2-8.7-18.2-17.8L168,433.5c-15.8-6.5-30.6-15.1-44-25.4l-55.6,17.8c-8.8,2.8-18.6,0.3-24.5-6.8
	c-8.1-9.8-15.5-20.2-22.1-31.2l-4.7-8.1c-6.1-11-11.4-22.4-15.8-34.3c-3.2-8.7-0.5-18.4,6.4-24.6L51,281.5
	c-1.1-8.4-1.7-16.9-1.7-25.5s0.6-17.1,1.7-25.4L7.7,191.2c-6.9-6.2-9.6-15.9-6.4-24.6c4.4-11.9,9.7-23.3,15.8-34.3l4.7-8.1
	c6.6-11,14-21.4,22.1-31.2c5.9-7.2,15.7-9.6,24.5-6.8l55.7,17.7c13.4-10.3,28.2-18.9,44-25.4l12.5-57.1c2-9.1,9-16.3,18.2-17.8
	c13.8-2.4,28-3.6,42.5-3.6s28.7,1.2,42.5,3.5C293,5,300,12.2,302,21.3l12.5,57.1c15.8,6.5,30.6,15.1,44,25.4l55.7-17.7
	c8.8-2.8,18.6-0.3,24.5,6.8c8.1,9.8,15.5,20.2,22.1,31.2l4.7,8.1c6.1,11,11.4,22.4,15.8,34.3L481.2,166.6z M241.3,336
	c44.2,0,80-35.8,80-80s-35.8-80-80-80s-80,35.8-80,80S197.2,336,241.3,336z"/>
</svg>
