<?xml version="1.0" encoding="utf-8"?>
<!-- Generator: Adobe Illustrator 28.3.0, SVG Export Plug-In . SVG Version: 6.00 Build 0)  -->
<svg version="1.1" id="Ebene_1" xmlns="http://www.w3.org/2000/svg" xmlns:xlink="http://www.w3.org/1999/xlink" x="0px" y="0px"
	 viewBox="0 0 746.1 98" style="enable-background:new 0 0 746.1 98;" xml:space="preserve">
<style type="text/css">
	.st0{fill:#FFFFFF;}
</style>
<g>
	<path class="st0" d="M1.4,75.1c0,0,10.5,12.6,24.7,12.6c8.2,0,15.4-5.6,15.4-15.6C41.5,53.1,0.3,52.4,0.3,27C0.3,12.2,11.8,0,28,0
		c11.3,0,19.4,4,23.7,6.7l-3.7,10.5c-0.3-0.7-9.5-7-20.4-7c-6.7,0-13.8,4.6-13.8,12.9c0,20.7,40.5,18.9,40.5,47.1
		C54.3,86.4,43.2,98,25.7,98C8.8,98,0,87.4,0,87.4C0.1,87.3,1.4,75.1,1.4,75.1"/>
	<path class="st0" d="M108.2,20c14.4,0,28.3,7.3,28.3,23.3c0,13.3-13.9,25.1-32.6,25.1h-6v18.5l1.4,9.3H85.7v-65L83.8,20H108.2z
		 M105.9,58.7c9.5,0,17.7-5.9,17.7-15.5c0-9-8.2-13.6-17.7-13.6h-8v29.1H105.9z"/>
	<path class="st0" d="M180.8,20l7.3-1.6l26.3,64.3l6.9,13.5H207l-8.2-19.8h-31.3L159,96.2h-11.5L180.8,20z M171.4,66.6h23.7
		l-10-24.8l-1.3-4.3l-1.6,4.3L171.4,66.6z"/>
	<path class="st0" d="M292.1,96.2l-22.7-28l-10.8,0.1v18.5l1.4,9.3h-13.6v-65L244.6,20H269c14.4,0,28.3,7.3,28.3,23.3
		c0,8.8-6.3,17.4-15.8,21.8L308,96.2H292.1z M266.7,58.7c9.5,0,17.7-7,17.7-15.5c0-9-8.2-13.6-17.7-13.6h-8v29.1H266.7z"/>
	<polygon class="st0" points="378.2,96.2 346.2,58.6 346.2,86.8 347.6,96.2 334,96.2 334,31.1 332.1,20 346.2,20 346.2,55.1 
		371.3,27.6 371.2,27.7 375.2,20 393.1,20 359.5,55.8 394.9,96.2 	"/>
	<polygon class="st0" points="450.7,98 441.6,96.2 413.1,17.5 404.8,1.7 422,1.7 444.5,64.9 447.5,76.9 451.3,64.9 475.1,1.7 
		487.9,1.7 	"/>
	<polygon class="st0" points="524.7,86.8 526.2,96.2 512.5,96.2 512.5,31.1 510.7,20 524.7,20 	"/>
	<polygon class="st0" points="565.1,31.1 563.2,20 608.1,20 608.1,29.6 577.3,29.6 577.3,52.2 604.5,52.2 601.5,61.9 577.3,61.9 
		577.3,86.6 609.9,86.6 606.8,96.2 565.1,96.2 	"/>
	<polygon class="st0" points="711.9,98 704,96.6 688.5,58.7 686.4,52.7 684.3,59.4 667.6,98 660.1,96.6 634.3,33.3 634.3,33.4 
		626.1,20 642.4,20 662.8,70.9 665.3,79.4 668.4,70.3 681,40.8 672.1,20 686.4,20 706.7,70.9 709.2,79.4 712.3,70.3 733.9,20 
		746.1,20 	"/>
</g>
</svg>
