<?xml version="1.0" encoding="UTF-8"?><svg id="uuid-9dfa37eb-af9a-4740-9fe4-ea4fcf304496" xmlns="http://www.w3.org/2000/svg" viewBox="0 0 48 48"><defs><style>.uuid-b1b27f86-e0b1-42ae-9adc-ea1117dc5237{fill:#47536b;stroke-width:0px;}</style></defs><path class="uuid-b1b27f86-e0b1-42ae-9adc-ea1117dc5237" d="m36,45H12c-1.66,0-3-1.34-3-3V6c0-1.66,1.34-3,3-3h12v10.5c0,2.48,2.02,4.5,4.5,4.5h10.5v24c0,1.66-1.34,3-3,3Zm-7.5-30c-.83,0-1.5-.67-1.5-1.5V3.05c.26.07.51.2.69.39l10.87,10.87c.2.2.33.43.39.69h-10.45ZM12,0c-3.31,0-6,2.69-6,6v36c0,3.31,2.69,6,6,6h24c3.31,0,6-2.69,6-6V15.37c0-1.19-.48-2.33-1.32-3.18L29.82,1.32c-.84-.84-1.99-1.32-3.18-1.32h-14.64Zm3,36h7.5v3h-7.5v-3Zm0-3v-3h7.5v3h-7.5Zm10.5,6v-3h7.5v3h-7.5Zm0-6v-3h7.5v3h-7.5Zm10.5,1.5v-10.5c0-1.66-1.34-3-3-3H15c-1.66,0-3,1.34-3,3v15c0,1.66,1.34,3,3,3h18c1.66,0,3-1.34,3-3v-4.5Zm-3-10.5v3H15v-3h18Z"/></svg>