<?xml version="1.0" encoding="UTF-8"?><svg id="uuid-3c53c29e-7922-4e34-bf45-58044c2407dd" xmlns="http://www.w3.org/2000/svg" viewBox="0 0 48 48"><defs><style>.uuid-00363caf-89bd-4e9c-b7cf-26524c9a94f8{fill:#47536b;stroke-width:0px;}</style></defs><path class="uuid-00363caf-89bd-4e9c-b7cf-26524c9a94f8" d="m.43,7.64c-.54-.5-.57-1.34-.07-1.88s1.34-.57,1.88-.07l18.67,17.33c.27.25.42.61.42.97s-.16.72-.42.97L2.24,42.31c-.54.5-1.38.47-1.88-.07s-.47-1.38.07-1.88l17.62-16.36L.43,7.64Zm19.57,32.36h26.67c.73,0,1.33.6,1.33,1.33s-.6,1.33-1.33,1.33h-26.67c-.73,0-1.33-.6-1.33-1.33s.6-1.33,1.33-1.33Z"/></svg>