<?xml version="1.0" encoding="UTF-8"?><svg id="uuid-eb44037e-821d-47dd-95c8-1cc43a56f27c" xmlns="http://www.w3.org/2000/svg" viewBox="0 0 48 48"><defs><style>.uuid-2324d06b-a7d6-4d18-958d-f65b9067c958{fill:#47536b;stroke-width:0px;}</style></defs><path class="uuid-2324d06b-a7d6-4d18-958d-f65b9067c958" d="m36,45H12c-1.66,0-3-1.34-3-3V6c0-1.66,1.34-3,3-3h12v10.5c0,2.48,2.02,4.5,4.5,4.5h10.5v24c0,1.66-1.34,3-3,3Zm-7.5-30c-.83,0-1.5-.67-1.5-1.5V3.05c.26.07.51.2.69.39l10.87,10.87c.2.2.33.43.39.69h-10.45ZM12,0C8.69,0,6,2.69,6,6v36c0,3.31,2.69,6,6,6h24c3.31,0,6-2.69,6-6V15.37c0-1.19-.48-2.33-1.32-3.18L29.82,1.32C28.98.48,27.83,0,26.64,0h-14.64Zm4.5,24c-.83,0-1.5.68-1.5,1.5s.67,1.5,1.5,1.5h15c.82,0,1.5-.68,1.5-1.5s-.68-1.5-1.5-1.5h-15Zm0,6c-.83,0-1.5.68-1.5,1.5s.67,1.5,1.5,1.5h15c.82,0,1.5-.68,1.5-1.5s-.68-1.5-1.5-1.5h-15Zm0,6c-.83,0-1.5.68-1.5,1.5s.67,1.5,1.5,1.5h15c.82,0,1.5-.68,1.5-1.5s-.68-1.5-1.5-1.5h-15Z"/></svg>