<svg version="1.1" xmlns="http://www.w3.org/2000/svg" xmlns:xlink="http://www.w3.org/1999/xlink" x="0px" y="0px"
	 viewBox="0 0 1082.54 142.25" style="enable-background:new 0 0 1082.54 142.25;" xml:space="preserve">
<style type="text/css">
	.st0{fill:#005A80;}
</style>
<path class="st0" d="M2.08,108.92c0,0,15.2,18.33,35.82,18.33c11.87,0,22.28-8.12,22.28-22.7c0-27.49-59.77-28.53-59.77-65.4
	C0.42,17.7,17.08,0,40.61,0c16.45,0,28.12,5.83,34.36,9.79l-5.41,15.2c-0.42-1.04-13.75-10.2-29.57-10.2
	c-9.79,0-19.99,6.66-19.99,18.74c0,29.99,58.73,27.49,58.73,68.31c0,23.53-16.04,40.4-41.44,40.4C12.7,142.25,0,126.84,0,126.84
	C0.21,126.63,2.08,108.92,2.08,108.92"/>
<path class="st0" d="M157.03,28.95c20.83,0,41.03,10.62,41.03,33.74c0,19.37-20.2,36.45-47.28,36.45h-8.75V126l2.08,13.54h-19.78
	V45.19l-2.71-16.24H157.03z M153.7,85.18c13.74,0,25.62-8.54,25.62-22.49c0-13.12-11.87-19.79-25.62-19.79h-11.66v42.28H153.7z"/>
<path class="st0" d="M262.41,28.95l10.62-2.29l38.11,93.3l10,19.58h-20.83l-11.87-28.74h-45.4l-12.29,28.74h-16.66L262.41,28.95z
	 M248.66,96.64h34.36l-14.58-36.03l-1.87-6.25l-2.29,6.25L248.66,96.64z"/>
<path class="st0" d="M423.81,139.54l-32.91-40.61l-15.62,0.21V126l2.08,13.54h-19.78V45.19l-2.71-16.24h35.41
	c20.83,0,41.03,10.62,41.03,33.74c0,12.7-9.16,25.2-22.91,31.66l38.53,45.19H423.81z M386.95,85.18c13.74,0,25.62-10.2,25.62-22.49
	c0-13.12-11.87-19.79-25.62-19.79h-11.66v42.28H386.95z"/>
<polygon class="st0" points="548.77,139.54 502.32,84.97 502.32,126 504.41,139.54 484.62,139.54 484.62,45.19 481.91,28.95 
	502.32,28.95 502.32,79.97 538.77,39.99 538.56,40.2 544.39,28.95 570.43,28.95 521.69,81.02 572.93,139.54 "/>
<polygon class="st0" points="653.94,142.25 640.82,139.54 599.37,25.41 587.29,2.5 612.29,2.5 644.98,94.14 649.36,111.63 
	654.77,94.14 689.34,2.5 707.88,2.5 "/>
<polygon class="st0" points="761.4,126 763.48,139.54 743.7,139.54 743.7,45.19 740.99,28.95 761.4,28.95 "/>
<polygon class="st0" points="819.92,45.19 817.21,28.95 882.4,28.95 882.4,42.9 837.62,42.9 837.62,75.81 877.19,75.81 
	872.82,89.76 837.62,89.76 837.62,125.59 884.9,125.59 880.53,139.54 819.92,139.54 "/>
<polygon class="st0" points="1032.97,142.25 1021.52,140.16 999.02,85.18 995.9,76.43 992.98,86.22 968.62,142.25 957.79,140.16 
	920.3,48.32 920.3,48.53 908.43,28.95 932.17,28.95 961.74,102.88 965.29,115.17 969.87,102.05 988.19,59.15 975.28,28.95 
	995.9,28.95 1025.47,102.88 1029.01,115.17 1033.6,102.05 1064.84,28.95 1082.54,28.95 "/>
</svg>
